<svg width="110" height="76" viewBox="0 0 110 76" fill="none" xmlns="http://www.w3.org/2000/svg">
<path fill-rule="evenodd" clip-rule="evenodd" d="M54.8951 8.12726C46.4556 12.2019 39.5675 18.6189 35.5763 22.576C28.0906 29.9976 24.278 33.6239 20.2596 37.6422C24.278 41.6605 28.0906 45.2868 35.5763 52.7084C39.5675 56.6655 46.4556 63.083 54.8951 67.1572C63.3352 63.0831 70.224 56.6657 74.2154 52.7084C81.7011 45.2868 85.5139 41.6605 89.5322 37.6422C85.5139 33.6239 81.7011 29.9976 74.2154 22.576C70.224 18.6187 63.3352 12.2019 54.8951 8.12726Z" fill="#00E77D"/>
<path d="M42.3992 37.6412C42.3992 30.74 47.9937 25.1455 54.8949 25.1455C61.7961 25.1455 67.3906 30.74 67.3906 37.6412C67.3906 44.5424 61.7961 50.1369 54.8949 50.1369C47.9937 50.1369 42.3992 44.5424 42.3992 37.6412Z" fill="#230065"/>
<path fill-rule="evenodd" clip-rule="evenodd" d="M39.39 0.084243C28.8123 -0.0295964 19.1085 2.69637 11.9725 8.94085C4.82575 15.1946 0.632642 24.8543 0.545298 37.129C0.542463 37.4888 0.556601 37.6574 0.556601 37.6409C0.555959 37.6812 0.545298 37.8317 0.545298 38.1197C0.545266 38.1292 0.545266 38.1387 0.545298 38.1481C0.631471 50.4255 4.82466 60.0869 11.9725 66.3417C19.1085 72.5862 28.8123 75.3123 39.39 75.1983C56.9286 75.3508 70.8143 62.071 77.2108 55.7292C84.6758 48.3281 88.4761 44.7116 92.5406 40.6471C93.3369 39.8496 93.7842 38.7687 93.7842 37.6417C93.7842 36.5147 93.3369 35.4337 92.5406 34.6363C88.4756 30.5713 84.6756 26.9605 77.2108 19.5597C70.8146 13.2182 56.9289 -0.0674388 39.39 0.0850576V0.084243ZM39.3404 8.58305C39.3715 8.58339 39.4027 8.58339 39.4338 8.58305C52.4106 8.45284 65.1425 19.57 71.2218 25.5972C77.2296 31.5536 80.2152 34.4368 83.4691 37.6409C80.2149 40.8457 77.2296 43.7336 71.2218 49.69C65.1428 55.717 52.411 66.829 39.4338 66.6987C39.4027 66.6984 39.3715 66.6984 39.3404 66.6987C30.2563 66.8047 22.7625 64.4779 17.5759 59.9393C12.3893 55.4006 9.12836 48.5332 9.055 38.0867C9.05591 38.0487 9.06261 37.923 9.06261 37.6574C9.06263 37.6517 9.06263 37.6461 9.06261 37.6404C9.06261 37.305 9.055 37.167 9.055 37.2055C9.05501 37.2017 9.05501 37.198 9.055 37.1942C9.12832 26.7477 12.3892 19.8803 17.5759 15.3416C22.7625 10.803 30.2563 8.47647 39.3404 8.58221V8.58305Z" fill="#230065"/>
<path fill-rule="evenodd" clip-rule="evenodd" d="M70.4018 0.0842425C52.8629 -0.0682236 38.9772 13.2174 32.5809 19.5589C25.1162 26.9597 21.3161 30.5704 17.2512 34.6355C16.4548 35.4329 16.0076 36.5139 16.0076 37.6409C16.0076 38.7679 16.4548 39.8488 17.2512 40.6463C21.3157 44.7108 25.1159 48.3273 32.5809 55.7284C38.9775 62.0701 52.8633 75.35 70.4018 75.1975C80.9795 75.3114 90.6832 72.5854 97.8193 66.3409C104.967 60.0861 109.16 50.4247 109.246 38.1473C109.247 38.1378 109.247 38.1284 109.246 38.1189C109.246 37.831 109.235 37.6804 109.235 37.6401V37.6287C109.235 37.6283 109.235 37.6231 109.235 37.6231C109.236 37.6287 109.25 37.4745 109.246 37.1332C109.161 24.8558 104.967 15.1943 97.8193 8.93955C90.6832 2.69507 80.9795 -0.0308903 70.4018 0.0829377V0.0842425ZM70.358 8.58305C70.3892 8.58339 70.4204 8.58339 70.4517 8.58305C79.5358 8.47737 87.0295 10.8039 92.2161 15.3425C97.4027 19.8811 100.664 26.7486 100.737 37.195C100.737 37.1988 100.737 37.2026 100.737 37.2064C100.737 37.1669 100.733 37.3053 100.733 37.6412C100.733 37.6469 100.733 37.6526 100.733 37.6582C100.734 37.9237 100.737 38.0495 100.737 38.0876C100.664 48.534 97.4027 55.4015 92.2161 59.9401C87.0295 64.4788 79.5357 66.8054 70.4517 66.6995C70.4204 66.6992 70.3892 66.6992 70.358 66.6995C57.3808 66.8297 44.649 55.7178 38.57 49.6909C32.5621 43.7345 29.5768 40.8465 26.3226 37.6417C29.5765 34.4377 32.5622 31.5544 38.57 25.598C44.6493 19.5708 57.3811 8.4536 70.358 8.58389V8.58305Z" fill="#230065"/>
</svg>
