<svg width="110" height="76" viewBox="0 0 110 76" fill="none" xmlns="http://www.w3.org/2000/svg">
<path d="M71.391 0.362288C71.0622 0.360278 70.7313 0.360689 70.4008 0.364249V0.36621C64.82 0.317719 59.6124 1.63146 54.8949 3.64745C50.178 1.63191 44.9691 0.317688 39.389 0.36621C28.8114 0.252371 19.1072 2.9772 11.9711 9.22168C4.8244 15.4754 0.632672 25.1365 0.545289 37.4111C0.542492 37.771 0.556593 37.9394 0.556593 37.9228C0.555912 37.9631 0.545289 38.1133 0.545289 38.4014C0.545251 38.4112 0.545251 38.421 0.545289 38.4309C0.631462 50.7082 4.8233 60.3694 11.9711 66.6242C19.1071 72.8687 28.8114 75.5936 39.389 75.4797C44.9699 75.5282 50.1793 74.2137 54.8969 72.1984C59.6138 74.2132 64.8208 75.5282 70.4008 75.4797C80.9785 75.5935 90.6826 72.8668 97.8186 66.6223C104.966 60.3675 109.16 50.7063 109.246 38.4289V38.4269V38.425V38.423V38.4211V38.4191V38.4172V38.4152V38.4133V38.4113V38.4094V38.4074V38.4054V38.4035V38.4016C109.246 38.1136 109.235 37.9614 109.235 37.9211V37.9113V37.9056C109.236 37.9113 109.25 37.7567 109.246 37.4154C109.161 25.138 104.966 15.4767 97.8186 9.222C90.9056 3.17266 81.5836 0.424929 71.391 0.36262V0.362288ZM39.3402 8.86425C39.3705 8.86459 39.4025 8.86459 39.4339 8.86425C41.2059 8.84649 42.9725 9.04517 44.7191 9.40526C39.4877 13.0862 35.3369 17.1079 32.5804 19.8408C25.1157 27.2417 21.3152 30.852 17.2503 34.917C15.5915 36.5776 15.5915 39.2681 17.2503 40.9287C21.3148 44.9932 25.1154 48.6096 32.5804 56.0107C35.3363 58.743 39.4857 62.7615 44.7152 66.4404C42.9698 66.7998 41.2047 66.9973 39.4339 66.9795C39.4037 66.9791 39.3716 66.9791 39.3402 66.9795C30.2562 67.0855 22.7611 64.7603 17.5745 60.2217C12.3879 55.683 9.12835 48.8146 9.05499 38.3682C9.05594 38.3301 9.0588 38.2041 9.0588 37.9385V37.9365V37.9346V37.9326V37.9306V37.9287V37.9267V37.9248V37.9228C9.0588 37.5875 9.05499 37.4487 9.05499 37.4873V37.4853V37.4834V37.4814V37.4795V37.4775V37.4756C9.12832 27.0291 12.3879 20.1626 17.5745 15.624C22.7611 11.0854 30.2561 8.75851 39.3402 8.86425V8.86425ZM70.3578 8.86425C70.388 8.86459 70.4202 8.86459 70.4516 8.86425C79.5356 8.75857 87.0286 11.0854 92.2152 15.624C97.4018 20.1626 100.663 27.0311 100.737 37.4775V37.4874C100.736 37.4479 100.733 37.587 100.733 37.9229V37.9407C100.734 38.2061 100.737 38.3322 100.737 38.3704C100.663 48.8168 97.4018 55.6833 92.2152 60.2219C87.0286 64.7606 79.5356 67.0876 70.4516 66.9817C70.4213 66.9813 70.3891 66.9813 70.3578 66.9817C68.587 66.9994 66.8219 66.8001 65.0765 66.4407C70.3057 62.7618 74.4555 58.7432 77.2113 56.011C84.6763 48.6098 88.475 44.9934 92.5394 40.929C94.1969 39.2685 94.1969 36.5796 92.5394 34.9192C88.4745 30.8542 84.676 27.2419 77.2113 19.8411C74.4548 17.1082 70.304 13.0864 65.0726 9.40551C66.8192 9.04543 68.5857 8.84867 70.3578 8.86646V8.86425ZM54.8969 13.2881C61.7699 17.0304 67.6461 22.3355 71.2211 25.8799C77.2288 31.8362 80.2152 34.7188 83.4691 37.9228C80.2149 41.1276 77.2289 44.0153 71.2211 49.9717C67.6456 53.5165 61.7676 58.8186 54.893 62.5596C48.02 58.8187 42.1435 53.5158 38.5687 49.9717C32.5609 44.0153 29.5768 41.1276 26.3226 37.9228C29.5764 34.7188 32.561 31.8362 38.5687 25.8799C42.1443 22.3349 48.0223 17.0306 54.8969 13.2881V13.2881ZM54.8949 25.4268C47.9934 25.4266 42.3985 31.0214 42.3988 37.9229C42.3985 44.8243 47.9934 50.4191 54.8949 50.419C61.7964 50.4192 67.3912 44.8243 67.391 37.9229C67.3912 31.0214 61.7964 25.4265 54.8949 25.4268Z" fill="#00E77D"/>
</svg>
