<svg width="110" height="76" viewBox="0 0 110 76" fill="none" xmlns="http://www.w3.org/2000/svg">
<path d="M71.3909 0.643936C71.0621 0.641932 70.7312 0.642344 70.4007 0.645896V0.647857C64.8199 0.599479 59.6123 1.91312 54.8949 3.92908C50.1779 1.91353 44.9691 0.599328 39.389 0.647857C28.8114 0.534093 19.1072 3.25883 11.9711 9.50333C4.8244 15.7571 0.632672 25.4181 0.545289 37.6928C0.542492 38.0526 0.556593 38.221 0.556593 38.2045C0.555912 38.2449 0.545289 38.395 0.545289 38.683C0.545251 38.6944 0.545251 38.7019 0.545289 38.7133C0.631462 50.9906 4.8233 60.6518 11.9711 66.9066C19.1071 73.1511 28.8114 75.876 39.389 75.7621C44.9699 75.8105 50.1793 74.4961 54.8969 72.4808C59.6138 74.4956 64.8207 75.8106 70.4007 75.7621C80.9783 75.8758 90.6826 73.1492 97.8186 66.9046C104.966 60.6499 109.16 50.9887 109.246 38.7113V38.7094V38.7074V38.7054V38.7035V38.7015V38.6996V38.6976V38.6957V38.6937V38.6918V38.6898V38.6879V38.6859V38.684C109.246 38.396 109.235 38.2438 109.235 38.2035V38.1921V38.1846C109.236 38.1921 109.25 38.0357 109.246 37.6943C109.161 25.417 104.966 15.7557 97.8186 9.50099C90.9056 3.45163 81.5835 0.703895 71.3909 0.641571V0.643936ZM39.3402 9.14588C39.3705 9.14622 39.4025 9.14622 39.4339 9.14588C41.2059 9.12699 42.9725 9.32693 44.7191 9.68689C39.4877 13.3679 35.3369 17.3896 32.5804 20.1225C25.1157 27.5233 21.3152 31.1336 17.2503 35.1986C15.5915 36.8593 15.5915 39.5497 17.2503 41.2103C21.3148 45.2748 25.1154 48.8913 32.5804 56.2924C35.3363 59.0247 39.4857 63.0431 44.7152 66.7221C42.9698 67.0815 41.2047 67.2789 39.4339 67.2611C39.4037 67.2608 39.3716 67.2608 39.3402 67.2611C30.2562 67.3669 22.7611 65.042 17.5745 60.5033C12.3879 55.9647 9.12832 49.0963 9.05499 38.6498C9.0559 38.6116 9.0588 38.4858 9.0588 38.2201V38.2182V38.2162V38.2142V38.2123V38.2103V38.2084V38.2065V38.2045C9.0588 37.8692 9.05499 37.7304 9.05499 37.7689V37.767V37.765V37.7631V37.7611V37.7592V37.7572C9.12832 27.3108 12.3879 20.4443 17.5745 15.9056C22.7611 11.367 30.2561 9.04013 39.3402 9.14588V9.14588ZM70.3578 9.14588C70.388 9.14622 70.4201 9.14622 70.4514 9.14588C79.5355 9.04006 87.0284 11.367 92.2151 15.9056C97.4017 20.4443 100.663 27.3127 100.737 37.7592V37.7705C100.736 37.7312 100.733 37.8699 100.733 38.2061V38.225C100.734 38.4903 100.737 38.6166 100.737 38.6547C100.663 49.1011 97.4017 55.9676 92.2151 60.5062C87.0284 65.0449 79.5355 67.3718 70.4514 67.266C70.4212 67.2656 70.3891 67.2656 70.3578 67.266C68.587 67.2849 66.8219 67.0842 65.0765 66.725C70.3057 63.0462 74.4555 59.0275 77.2113 56.2953C84.6763 48.8942 88.4749 45.2777 92.5394 41.2132C94.1969 39.5528 94.1969 36.8639 92.5394 35.2035C88.4744 31.1385 84.676 27.5262 77.2113 20.1254C74.4548 17.3925 70.304 13.3707 65.0726 9.68981C66.8191 9.32962 68.5857 9.13295 70.3578 9.15076V9.14588ZM54.8969 13.5697C61.7699 17.3121 67.646 22.6171 71.221 26.1615C77.2287 32.1179 80.2152 35.0004 83.4691 38.2045C80.2149 41.4093 77.2288 44.2969 71.221 50.2533C67.6456 53.7982 61.7675 59.1003 54.8928 62.8412C48.0199 59.1004 42.1435 53.7975 38.5687 50.2533C32.5609 44.2969 29.5768 41.4093 26.3226 38.2045C29.5765 35.0004 32.561 32.1179 38.5687 26.1615C42.1443 22.6165 48.0223 17.3122 54.8969 13.5697ZM54.8949 25.7082C47.9934 25.708 42.3985 31.3029 42.3988 38.2043C42.3985 45.1058 47.9934 50.7007 54.8949 50.7004C61.7964 50.7007 67.3912 45.1058 67.391 38.2043C67.3912 31.3029 61.7964 25.708 54.8949 25.7082Z" fill="#230065"/>
</svg>
