<svg width="110" height="77" viewBox="0 0 110 77" fill="none" xmlns="http://www.w3.org/2000/svg">
<path d="M71.3909 0.925342C71.0621 0.923338 70.7312 0.923807 70.4007 0.92736V0.929321C64.8199 0.880943 59.6123 2.19455 54.8949 4.21051C50.1779 2.19497 44.9691 0.880792 39.389 0.929321C28.8114 0.815557 19.1072 3.54027 11.9711 9.78476C4.8244 16.0385 0.632672 25.6996 0.545289 37.9742C0.542492 38.3341 0.556593 38.5025 0.556593 38.486C0.555912 38.5264 0.545289 38.6764 0.545289 38.9645C0.545251 38.9758 0.545251 38.9833 0.545289 38.9947C0.631462 51.2721 4.8233 60.9333 11.9711 67.1881C19.1071 73.4326 28.8114 76.1575 39.389 76.0435C44.9699 76.0919 50.1793 74.7776 54.8969 72.7623C59.6138 74.7771 64.8207 76.092 70.4007 76.0435C80.9783 76.1573 90.6826 73.4306 97.8186 67.1861C104.966 60.9313 109.16 51.2701 109.246 38.9927V38.9908V38.9888V38.9869V38.9849V38.983V38.981V38.979V38.9771V38.9752V38.9732V38.9713V38.9693V38.9673V38.9654C109.246 38.6774 109.235 38.5252 109.235 38.4849V38.4736V38.466C109.236 38.4736 109.25 38.3171 109.246 37.9758C109.161 25.6984 104.966 16.0371 97.8186 9.7824C90.9056 3.73304 81.5835 0.985359 71.3909 0.923035V0.925342ZM39.3402 9.42732C39.3705 9.42766 39.4025 9.42766 39.4339 9.42732C41.2059 9.40842 42.9725 9.60837 44.7191 9.96833C39.4877 13.6493 35.3369 17.671 32.5804 20.4039C25.1157 27.8047 21.3152 31.4151 17.2503 35.4801C15.5915 37.1407 15.5915 39.8311 17.2503 41.4918C21.3148 45.5562 25.1154 49.1727 32.5804 56.5738C35.3363 59.3061 39.4857 63.3246 44.7152 67.0035C42.9698 67.363 41.2047 67.5604 39.4339 67.5426C39.4037 67.5422 39.3716 67.5422 39.3402 67.5426C30.2562 67.6484 22.7611 65.3234 17.5745 60.7847C12.3879 56.2461 9.12832 49.3777 9.05499 38.9312C9.0559 38.8931 9.0588 38.7672 9.0588 38.5015V38.4996V38.4977V38.4957V38.4937V38.4918V38.4898V38.4879V38.486C9.0588 38.1507 9.05499 38.0118 9.05499 38.0504V38.0484V38.0465V38.0445V38.0426V38.0406V38.0387C9.12832 27.5922 12.3879 20.7257 17.5745 16.1871C22.7611 11.6485 30.2561 9.32157 39.3402 9.42732V9.42732ZM70.3578 9.42732C70.388 9.42766 70.4201 9.42766 70.4514 9.42732C79.5355 9.32149 87.0284 11.6485 92.2151 16.1871C97.4017 20.7257 100.663 27.5942 100.737 38.0406V38.052C100.736 38.0127 100.733 38.1514 100.733 38.4875V38.5064C100.734 38.7718 100.737 38.898 100.737 38.9361C100.663 49.3826 97.4017 56.249 92.2151 60.7877C87.0284 65.3263 79.5355 67.6533 70.4514 67.5474C70.4212 67.5471 70.3891 67.5471 70.3578 67.5474C68.587 67.5663 66.8219 67.3657 65.0765 67.0065C70.3057 63.3276 74.4555 59.3089 77.2113 56.5767C84.6763 49.1756 88.4749 45.5592 92.5394 41.4947C94.1969 39.8343 94.1969 37.1454 92.5394 35.4849C88.4744 31.4199 84.676 27.8077 77.2113 20.4068C74.4548 17.6739 70.304 13.6522 65.0726 9.97127C66.8191 9.61108 68.5857 9.41442 70.3578 9.43222V9.42732ZM54.8969 13.8511C61.7699 17.5935 67.646 22.8986 71.221 26.443C77.2287 32.3994 80.2152 35.2819 83.4691 38.486C80.2149 41.6908 77.2288 44.5783 71.221 50.5348C67.6456 54.0796 61.7675 59.3817 54.8928 63.1226C48.0199 59.3818 42.1435 54.0789 38.5687 50.5348C32.5609 44.5783 29.5768 41.6908 26.3226 38.486C29.5765 35.2819 32.561 32.3994 38.5687 26.443C42.1443 22.898 48.0223 17.5936 54.8969 13.8511ZM54.8949 25.9897C47.9934 25.9895 42.3985 31.5843 42.3988 38.4858C42.3985 45.3873 47.9934 50.9821 54.8949 50.9819C61.7964 50.9821 67.3912 45.3873 67.391 38.4858C67.3912 31.5843 61.7964 25.9895 54.8949 25.9897Z" fill="#F9F9F9"/>
</svg>
