<svg width="371" height="76" viewBox="0 0 371 76" fill="none" xmlns="http://www.w3.org/2000/svg">
<path d="M192.846 15.6357C184.097 15.6357 173.438 19.973 173.438 31.5156V62.9826C173.438 64.6735 174.246 65.1151 175.569 65.1151H182.848C184.172 65.1151 184.981 64.6735 184.981 62.9826V50.2359H200.787V62.9826C200.787 64.6735 201.595 65.1151 202.919 65.1151H210.198C211.521 65.1151 212.329 64.6735 212.329 62.9826V31.5156C212.329 19.973 201.595 15.6357 192.846 15.6357V15.6357ZM192.846 25.8547C197.698 25.8547 200.787 28.5009 200.787 33.1327V40.238H184.981V33.1327C184.981 28.5009 187.994 25.8547 192.846 25.8547V25.8547Z" fill="#230065"/>
<path d="M166.273 16.6647H159.215C156.789 16.6647 156.421 18.2821 155.907 19.1644L145.761 37.2503L135.688 19.1644C135.1 18.2821 134.806 16.6647 132.307 16.6647H125.028C123.337 16.6647 122.896 17.4734 122.896 18.7967V62.9824C122.896 64.6733 123.705 65.1145 125.028 65.1145H132.307C133.63 65.1145 134.439 64.6733 134.439 62.9824V38.059L141.864 50.9251C142.232 51.5132 142.82 52.469 143.923 52.469H147.599C148.702 52.469 149.363 51.5132 149.731 50.9251L157.083 38.059V62.9824C157.083 64.6733 157.892 65.1145 159.215 65.1145H166.273C167.596 65.1145 168.405 64.6733 168.405 62.9824V18.7967C168.405 17.4734 167.964 16.6647 166.273 16.6647V16.6647Z" fill="#230065"/>
<path d="M235.932 16.7382H219.39C217.699 16.7382 217.258 17.5469 217.258 18.8703V62.9824C217.258 64.6734 218.066 65.1145 219.39 65.1145H226.668C227.991 65.1145 228.8 64.6734 228.8 62.9824V50.7781H235.858C248.43 50.7781 255.194 44.0142 255.194 33.7949C255.194 23.649 248.577 16.7382 235.932 16.7382V16.7382ZM235.858 40.8528H228.8V27.1045H235.858C241.592 27.1045 244.092 30.1924 244.092 34.0154C244.092 37.6914 241.592 40.8528 235.858 40.8528Z" fill="#230065"/>
<path d="M294.752 54.8217H271.299V45.1169H291.003C292.694 45.1169 293.135 44.3083 293.135 42.9849V37.2503C293.135 35.9269 292.694 35.1182 291.003 35.1182H271.299V27.1045H293.503C295.194 27.1045 295.635 26.2958 295.635 24.9725V18.8703C295.635 17.5469 295.194 16.7382 293.503 16.7382H261.815C260.124 16.7382 259.683 17.5469 259.683 18.8703V62.9824C259.683 64.3058 260.124 65.1145 261.815 65.1145H294.752C296.443 65.1145 296.884 64.3058 296.884 62.9824V56.9537C296.884 55.6304 296.443 54.8216 294.752 54.8217V54.8217Z" fill="#230065"/>
<path d="M324.483 55.0423H319.852V26.9575H324.263C325.954 26.9575 326.395 26.1488 326.395 24.8254V18.8703C326.395 17.5469 325.954 16.7382 324.263 16.7382H303.824C302.133 16.7382 301.692 17.5469 301.692 18.8703V24.8254C301.692 26.1487 302.133 26.9575 303.824 26.9575H308.309V55.0423H303.677C301.986 55.0423 301.545 55.851 301.545 57.1743V62.9824C301.545 64.3058 301.986 65.1145 303.677 65.1145H324.483C326.174 65.1145 326.616 64.3058 326.616 62.9824V57.1743C326.616 55.851 326.174 55.0423 324.483 55.0423V55.0423Z" fill="#230065"/>
<path d="M351.062 15.6357C342.313 15.6357 331.653 19.973 331.653 31.5156V62.9826C331.653 64.6735 332.461 65.1151 333.785 65.1151H341.064C342.387 65.1151 343.195 64.6735 343.195 62.9826V50.024H359.002V62.9826C359.002 64.6735 359.811 65.1151 361.134 65.1151H368.414C369.737 65.1151 370.545 64.6735 370.545 62.9826V31.5156C370.545 19.973 359.811 15.6357 351.062 15.6357V15.6357ZM351.062 25.8547C355.914 25.8547 359.002 28.5009 359.002 33.1327V40.0248H343.195V33.1327C343.195 28.5009 346.21 25.8547 351.062 25.8547V25.8547Z" fill="#230065"/>
<path fill-rule="evenodd" clip-rule="evenodd" d="M55.1227 8.12724C46.6832 12.2019 39.7951 18.6189 35.8039 22.576C28.3182 29.9976 24.5055 33.6239 20.4872 37.6422C24.5055 41.6605 28.3182 45.2868 35.8039 52.7084C39.7951 56.6655 46.6832 63.083 55.1227 67.1571C63.5628 63.0831 70.4516 56.6657 74.443 52.7084C81.9287 45.2868 85.7415 41.6605 89.7598 37.6422C85.7415 33.6239 81.9287 29.9976 74.443 22.576C70.4516 18.6187 63.5628 12.2019 55.1227 8.12724Z" fill="#00E77D"/>
<path d="M42.6268 37.6412C42.6268 30.74 48.2214 25.1455 55.1226 25.1455C62.0238 25.1455 67.6183 30.74 67.6183 37.6412C67.6183 44.5424 62.0238 50.1369 55.1226 50.1369C48.2214 50.1369 42.6268 44.5424 42.6268 37.6412Z" fill="#230065"/>
<path fill-rule="evenodd" clip-rule="evenodd" d="M39.6175 0.084243C29.0399 -0.0295964 19.3361 2.69637 12.2 8.94085C5.05332 15.1946 0.860211 24.8543 0.772828 37.129C0.770031 37.4888 0.784132 37.6574 0.784132 37.6409C0.783489 37.6812 0.772828 37.8317 0.772828 38.1197C0.772797 38.1292 0.772797 38.1387 0.772828 38.1481C0.859001 50.4255 5.05223 60.0869 12.2 66.3417C19.336 72.5862 29.0398 75.3123 39.6175 75.1983C57.1561 75.3508 71.0419 62.071 77.4384 55.7292C84.9034 48.3281 88.7037 44.7116 92.7682 40.6471C93.5645 39.8496 94.0118 38.7687 94.0118 37.6417C94.0118 36.5147 93.5645 35.4337 92.7682 34.6363C88.7032 30.5713 84.9031 26.9605 77.4384 19.5597C71.0422 13.2182 57.1564 -0.0674388 39.6175 0.0850576V0.084243ZM39.5679 8.58305C39.5992 8.58339 39.6305 8.58339 39.6617 8.58305C52.6386 8.45284 65.3705 19.57 71.4498 25.5972C77.4575 31.5536 80.4431 34.4368 83.697 37.6409C80.4428 40.8457 77.4576 43.7336 71.4498 49.69C65.3708 55.717 52.6389 66.829 39.6617 66.6987C39.6305 66.6984 39.5992 66.6984 39.5679 66.6987C30.4839 66.8047 22.9901 64.4779 17.8035 59.9393C12.6169 55.4006 9.35597 48.5332 9.28265 38.0867C9.28355 38.0487 9.28645 37.923 9.28645 37.6574C9.28646 37.6517 9.28646 37.6461 9.28645 37.6404C9.28645 37.305 9.28265 37.167 9.28265 37.2055C9.28265 37.2017 9.28265 37.198 9.28265 37.1942C9.35597 26.7477 12.6168 19.8803 17.8035 15.3416C22.9901 10.803 30.4839 8.47647 39.5679 8.58221V8.58305Z" fill="#230065"/>
<path fill-rule="evenodd" clip-rule="evenodd" d="M70.6293 0.0842425C53.0904 -0.0682236 39.2048 13.2174 32.8085 19.5589C25.3438 26.9597 21.5437 30.5704 17.4787 34.6355C16.6824 35.4329 16.2351 36.5139 16.2351 37.6409C16.2351 38.7679 16.6824 39.8488 17.4787 40.6463C21.5432 44.7108 25.3436 48.3273 32.8085 55.7284C39.2051 62.0701 53.0908 75.35 70.6293 75.1975C81.207 75.3114 90.9109 72.5854 98.0469 66.3409C105.195 60.0861 109.388 50.4247 109.474 38.1473C109.474 38.1378 109.474 38.1284 109.474 38.1189C109.474 37.831 109.463 37.6804 109.463 37.6401V37.6287C109.463 37.6283 109.463 37.6231 109.463 37.6231C109.463 37.6287 109.478 37.4745 109.474 37.1332C109.388 24.8558 105.195 15.1943 98.0469 8.93955C90.9109 2.69507 81.207 -0.0308903 70.6293 0.0829377V0.0842425ZM70.5855 8.58305C70.6167 8.58339 70.648 8.58339 70.6793 8.58305C79.7633 8.47737 87.2571 10.8039 92.4437 15.3425C97.6304 19.8811 100.891 26.7486 100.964 37.195C100.964 37.1988 100.964 37.2026 100.964 37.2064C100.964 37.1669 100.961 37.3053 100.961 37.6412C100.961 37.6469 100.961 37.6526 100.961 37.6582C100.962 37.9237 100.964 38.0495 100.964 38.0876C100.891 48.534 97.6304 55.4015 92.4437 59.9401C87.2571 64.4788 79.7633 66.8054 70.6793 66.6995C70.648 66.6992 70.6167 66.6992 70.5855 66.6995C57.6083 66.8297 44.8765 55.7178 38.7975 49.6909C32.7897 43.7345 29.8043 40.8465 26.5501 37.6417C29.804 34.4377 32.7898 31.5544 38.7975 25.598C44.8768 19.5708 57.6086 8.4536 70.5855 8.58389V8.58305Z" fill="#230065"/>
</svg>
