<svg width="371" height="76" viewBox="0 0 371 76" fill="none" xmlns="http://www.w3.org/2000/svg">
<path d="M71.6187 0.643936C71.2899 0.641932 70.9591 0.642344 70.6285 0.645896V0.647857C65.0478 0.599479 59.8401 1.91312 55.1226 3.92908C50.4057 1.91353 45.1969 0.599328 39.6168 0.647857C29.0392 0.534093 19.3349 3.25883 12.1988 9.50333C5.05212 15.7571 0.860455 25.4181 0.773072 37.6928C0.770275 38.0526 0.784376 38.221 0.784376 38.2045C0.783695 38.2449 0.773072 38.395 0.773072 38.683C0.773034 38.6944 0.773034 38.7019 0.773072 38.7133C0.859245 50.9906 5.05103 60.6518 12.1988 66.9066C19.3348 73.1511 29.0392 75.876 39.6168 75.7621C45.1977 75.8105 50.407 74.4961 55.1246 72.4808C59.8415 74.4956 65.0485 75.8106 70.6285 75.7621C81.2062 75.8758 90.9104 73.1492 98.0465 66.9046C105.194 60.6499 109.388 50.9887 109.474 38.7113V38.7094V38.7074V38.7054V38.7035V38.7015V38.6996V38.6976V38.6957V38.6937V38.6918V38.6898V38.6879V38.6859V38.684C109.474 38.396 109.463 38.2438 109.463 38.2035V38.1921V38.1846C109.464 38.1921 109.478 38.0357 109.474 37.6943C109.388 25.417 105.194 15.7557 98.0465 9.50099C91.1334 3.45163 81.8113 0.703895 71.6187 0.641571V0.643936ZM39.568 9.14588C39.5982 9.14622 39.6303 9.14622 39.6617 9.14588C41.4337 9.12699 43.2003 9.32693 44.9469 9.68689C39.7154 13.3679 35.5647 17.3896 32.8082 20.1225C25.3435 27.5233 21.5431 31.1336 17.4781 35.1986C15.8194 36.8593 15.8194 39.5497 17.4781 41.2103C21.5426 45.2748 25.3432 48.8913 32.8082 56.2924C35.5641 59.0247 39.7135 63.0431 44.943 66.7221C43.1976 67.0815 41.4325 67.2789 39.6617 67.2611C39.6314 67.2608 39.5993 67.2608 39.568 67.2611C30.4839 67.3669 22.989 65.042 17.8023 60.5033C12.6157 55.9647 9.3561 49.0963 9.28278 38.6498C9.28368 38.6116 9.28658 38.4858 9.28658 38.2201V38.2182V38.2162V38.2142V38.2123V38.2103V38.2084V38.2065V38.2045C9.28658 37.8692 9.28278 37.7304 9.28278 37.7689V37.767V37.765V37.7631V37.7611V37.7592V37.7572C9.3561 27.3108 12.6157 20.4443 17.8023 15.9056C22.989 11.367 30.4839 9.04013 39.568 9.14588V9.14588ZM70.5855 9.14588C70.6157 9.14622 70.6479 9.14622 70.6793 9.14588C79.7634 9.04006 87.2563 11.367 92.4429 15.9056C97.6295 20.4443 100.891 27.3127 100.964 37.7592C100.964 37.763 100.964 37.7667 100.964 37.7705C100.964 37.7312 100.961 37.8699 100.961 38.2061C100.961 38.2136 100.961 38.2174 100.961 38.225C100.962 38.4903 100.964 38.6166 100.964 38.6547C100.891 49.1011 97.6295 55.9676 92.4429 60.5062C87.2563 65.0449 79.7633 67.3718 70.6793 67.266C70.649 67.2656 70.6169 67.2656 70.5855 67.266C68.8147 67.2849 67.0497 67.0842 65.3043 66.725C70.5335 63.0462 74.6833 59.0275 77.4391 56.2953C84.9041 48.8942 88.7027 45.2777 92.7672 41.2132C94.4247 39.5528 94.4247 36.8639 92.7672 35.2035C88.7022 31.1385 84.9038 27.5262 77.4391 20.1254C74.6826 17.3925 70.5318 13.3707 65.3004 9.68981C67.047 9.32962 68.8135 9.13295 70.5855 9.15076V9.14588ZM55.1246 13.5697C61.9977 17.3121 67.8738 22.6171 71.4488 26.1615C77.4566 32.1179 80.443 35.0004 83.6968 38.2045C80.4427 41.4093 77.4566 44.2969 71.4488 50.2533C67.8734 53.7982 61.9954 59.1003 55.1207 62.8412C48.2477 59.1004 42.3712 53.7975 38.7965 50.2533C32.7887 44.2969 29.8046 41.4093 26.5503 38.2045C29.8042 35.0004 32.7887 32.1179 38.7965 26.1615C42.3721 22.6165 48.2501 17.3122 55.1246 13.5697ZM192.845 16.1986C184.096 16.1986 173.437 20.5368 173.437 32.0795V63.5463C173.437 65.2372 174.245 65.6791 175.568 65.6791H182.847C184.171 65.6791 184.98 65.2372 184.98 63.5463V50.8002H200.787V63.5463C200.787 65.2372 201.594 65.6791 202.918 65.6791H210.197C211.52 65.6791 212.33 65.2372 212.33 63.5463V32.0795C212.33 20.5368 201.594 16.1986 192.845 16.1986V16.1986ZM351.062 16.1986C342.313 16.1986 331.654 20.5368 331.654 32.0795V63.5463C331.654 65.2372 332.461 65.6791 333.785 65.6791H341.064C342.387 65.6791 343.195 65.2372 343.195 63.5463V50.5873H359.002V63.5463C359.002 65.2372 359.811 65.6791 361.134 65.6791H368.414C369.737 65.6791 370.545 65.2372 370.545 63.5463V32.0795C370.545 20.5368 359.811 16.1986 351.062 16.1986V16.1986ZM125.027 17.2279C123.336 17.2279 122.896 18.0374 122.896 19.3607V63.5463C122.896 65.2372 123.704 65.6771 125.027 65.6771H132.306C133.63 65.6771 134.439 65.2372 134.439 63.5463V38.6225L141.865 51.4877C142.233 52.0759 142.821 53.0326 143.923 53.0326H147.599C148.702 53.0326 149.362 52.0759 149.73 51.4877L157.084 38.6225V63.5463C157.084 65.2372 157.891 65.6771 159.214 65.6771H166.273C167.596 65.6771 168.404 65.2372 168.404 63.5463V19.3607C168.404 18.0374 167.964 17.2279 166.273 17.2279H159.214C156.788 17.2279 156.421 18.8457 155.906 19.7279L145.761 37.8139L135.689 19.7279C135.101 18.8457 134.806 17.2279 132.306 17.2279H125.027ZM219.39 17.302C217.699 17.302 217.257 18.1095 217.257 19.4329V63.5461C217.257 65.2371 218.067 65.677 219.39 65.677H226.668C227.991 65.677 228.8 65.2371 228.8 63.5461V51.3411H235.857C248.429 51.3411 255.193 44.578 255.193 34.3586C255.193 24.2128 248.577 17.302 235.931 17.302H219.39ZM261.816 17.302C260.125 17.302 259.683 18.1095 259.683 19.4329V63.5461C259.683 64.8695 260.125 65.677 261.816 65.677H294.752C296.443 65.677 296.884 64.8695 296.884 63.5461V57.5168C296.884 56.1935 296.443 55.384 294.752 55.384H271.298V45.6809H291.004C292.695 45.6809 293.134 44.8714 293.134 43.5481V37.8137C293.134 36.4903 292.695 35.6809 291.004 35.6809H271.298V27.6672H293.502C295.193 27.6672 295.634 26.8598 295.634 25.5364V19.433C295.634 18.1096 295.193 17.3022 293.502 17.3022L261.816 17.302ZM303.824 17.302C302.133 17.302 301.693 18.1095 301.693 19.4329V25.3879C301.693 26.7113 302.133 27.5207 303.824 27.5207H308.308V55.6047H303.677C301.986 55.6047 301.545 56.4142 301.545 57.7375V63.5461C301.545 64.8695 301.986 65.677 303.677 65.677H324.484C326.175 65.677 326.615 64.8695 326.615 63.5461V57.7375C326.615 56.4142 326.175 55.6047 324.484 55.6047H319.851V27.5207H324.263C325.954 27.5207 326.394 26.7113 326.394 25.3879V19.433C326.394 18.1096 325.954 17.3022 324.263 17.3022L303.824 17.302ZM55.1226 25.7082C48.2211 25.708 42.6263 31.3029 42.6265 38.2043C42.6263 45.1058 48.2211 50.7007 55.1226 50.7004C62.0241 50.7007 67.619 45.1058 67.6187 38.2043C67.619 31.3029 62.0241 25.708 55.1226 25.7082ZM192.845 26.4172C197.698 26.4172 200.787 29.0647 200.787 33.6965V40.802H184.98V33.6965C184.98 29.0647 187.993 26.4172 192.845 26.4172V26.4172ZM351.062 26.4172C355.915 26.4172 359.002 29.0647 359.002 33.6965V40.5871H343.195V33.6965C343.195 29.0647 346.21 26.4172 351.062 26.4172V26.4172ZM228.8 27.6672H235.857C241.592 27.6672 244.091 30.7563 244.091 34.5793C244.091 38.2553 241.592 41.4153 235.857 41.4153H228.8V27.6672Z" fill="#230065"/>
</svg>
