<svg width="370" height="100" viewBox="0 0 370 100" fill="none" xmlns="http://www.w3.org/2000/svg">
<path d="M70.8463 0.283034C70.5175 0.281023 70.1866 0.281435 69.8561 0.284995V0.286941C64.2753 0.23845 59.0677 1.55221 54.3502 3.56819C49.6333 1.55265 44.4245 0.23842 38.8444 0.286941C28.2668 0.173102 18.5625 2.89793 11.4264 9.14241C4.27974 15.3962 0.0880123 25.0572 0.000633393 37.3319C-0.00216724 37.6917 0.0123499 37.8601 0.0123499 37.8436C0.0116696 37.8839 0.000633393 38.034 0.000633393 38.3221C0.000599337 38.3319 0.000599337 38.3418 0.000633393 38.3516C0.0868066 50.629 4.27864 60.2902 11.4264 66.5449C18.5625 72.7895 28.2668 75.5144 38.8444 75.4004C44.4253 75.4489 49.6347 74.1345 54.3522 72.1192C59.0692 74.134 64.2761 75.4489 69.8561 75.4004C80.4338 75.5143 90.138 72.7875 97.2741 66.543C104.422 60.2882 108.616 50.627 108.702 38.3496C108.702 38.349 108.702 38.3483 108.702 38.3477C108.702 38.347 108.702 38.3464 108.702 38.3457C108.702 38.3451 108.702 38.3444 108.702 38.3438C108.702 38.3431 108.702 38.3425 108.702 38.3418C108.702 38.3412 108.702 38.3405 108.702 38.3399C108.702 38.3392 108.702 38.3386 108.702 38.3379C108.702 38.3373 108.702 38.3366 108.702 38.336C108.702 38.3353 108.702 38.3346 108.702 38.334C108.702 38.3333 108.702 38.3327 108.702 38.332C108.702 38.3314 108.702 38.3308 108.702 38.3301C108.702 38.3295 108.702 38.3288 108.702 38.3282C108.702 38.3275 108.702 38.3268 108.702 38.3262C108.702 38.3255 108.702 38.3249 108.702 38.3242C108.702 38.3236 108.702 38.3229 108.702 38.3223C108.702 38.0343 108.69 37.8821 108.69 37.8418V37.832V37.8263C108.691 37.832 108.706 37.6775 108.702 37.3361C108.616 25.0587 104.422 15.3975 97.2741 9.14273C90.361 3.09339 81.0389 0.345661 70.8463 0.283351V0.283034ZM38.7956 8.78498C38.8268 8.78533 38.858 8.78533 38.8893 8.78498C40.6613 8.76722 42.4279 8.96592 44.1744 9.32601C38.943 13.0069 34.7923 17.0286 32.0358 19.7615C24.5711 27.1624 20.7706 30.7727 16.7057 34.8377C15.9091 35.6352 15.4616 36.7164 15.4616 37.8436C15.4616 38.9708 15.9091 40.0519 16.7057 40.8494C20.7702 44.9139 24.5708 48.5304 32.0358 55.9315C34.7917 58.6638 38.9411 62.6822 44.1705 66.3612C42.4251 66.7206 40.6601 66.918 38.8893 66.9002C38.858 66.8999 38.8268 66.8999 38.7956 66.9002C29.7115 67.0062 22.2165 64.6811 17.0299 60.1424C11.8433 55.6038 8.58372 48.7354 8.51039 38.2889C8.5113 38.2508 8.51417 38.1248 8.51417 37.8592C8.51417 37.8586 8.51417 37.8579 8.51417 37.8573C8.51417 37.8566 8.51417 37.8559 8.51417 37.8553C8.51417 37.8546 8.51417 37.854 8.51417 37.8534C8.51417 37.8527 8.51417 37.852 8.51417 37.8514C8.51417 37.8507 8.51417 37.8501 8.51417 37.8494C8.51417 37.8488 8.51417 37.8481 8.51417 37.8475C8.51417 37.8468 8.51417 37.8462 8.51417 37.8455C8.51417 37.8449 8.51417 37.8442 8.51417 37.8436C8.51417 37.5082 8.51039 37.3695 8.51039 37.408C8.51039 37.4074 8.51039 37.4067 8.51039 37.4061C8.51039 37.4054 8.51039 37.4048 8.51039 37.4041C8.51039 37.4035 8.51039 37.4028 8.51039 37.4022C8.51039 37.4015 8.51039 37.4009 8.51039 37.4002C8.51039 37.3996 8.51039 37.3989 8.51039 37.3983C8.51039 37.3976 8.51039 37.397 8.51039 37.3963C8.58371 26.9499 11.8433 20.0834 17.0299 15.5447C22.2166 11.0061 29.7115 8.67924 38.7956 8.78498V8.78498ZM69.8131 8.78498C69.8444 8.78533 69.8756 8.78533 69.9069 8.78498C78.991 8.67931 86.4839 11.0061 91.6706 15.5447C96.8572 20.0834 100.119 26.9518 100.192 37.3983C100.192 37.4015 100.192 37.4048 100.192 37.4081C100.192 37.3686 100.188 37.5077 100.188 37.8436C100.188 37.8496 100.188 37.8555 100.188 37.8614C100.189 38.1269 100.192 38.253 100.192 38.2911C100.119 48.7376 96.8572 55.604 91.6706 60.1426C86.4839 64.6813 78.9909 67.0083 69.9069 66.9024C69.8756 66.9021 69.8444 66.9021 69.8131 66.9024C68.0423 66.9202 66.2773 66.7208 64.5319 66.3614C69.7611 62.6826 73.9108 58.6639 76.6666 55.9317C84.1316 48.5306 87.9303 44.9142 91.9948 40.8497C92.7908 40.0523 93.2379 38.9715 93.2379 37.8448C93.2379 36.7181 92.7908 35.6374 91.9948 34.8399C87.9298 30.7749 84.1313 27.1627 76.6666 19.7618C73.9102 17.0289 69.7594 13.0072 64.528 9.32625C66.2746 8.96618 68.0411 8.7694 69.8131 8.78719V8.78498ZM54.3522 13.2088C61.2253 16.9512 67.1014 22.2562 70.6764 25.8006C76.6841 31.757 79.6706 34.6395 82.9245 37.8436C79.6703 41.0484 76.6842 43.936 70.6764 49.8924C67.101 53.4373 61.223 58.7393 54.3483 62.4803C47.4753 58.7394 41.5988 53.4366 38.0241 49.8924C32.0162 43.936 29.0322 41.0484 25.778 37.8436C29.0318 34.6395 32.0163 31.757 38.0241 25.8006C41.5997 22.2556 47.4777 16.9513 54.3522 13.2088ZM192.073 15.8377C183.324 15.8377 172.665 20.1759 172.665 31.7186V63.1854C172.665 64.8763 173.472 65.3182 174.796 65.3182H182.075C183.398 65.3182 184.208 64.8763 184.208 63.1854V50.4393H200.014V63.1854C200.014 64.8763 200.822 65.3182 202.145 65.3182H209.424C210.748 65.3182 211.557 64.8763 211.557 63.1854V31.7186C211.557 20.1759 200.822 15.8377 192.073 15.8377V15.8377ZM350.29 15.8377C341.541 15.8377 330.881 20.1759 330.881 31.7186V63.1854C330.881 64.8763 331.689 65.3182 333.012 65.3182H340.292C341.615 65.3182 342.423 64.8763 342.423 63.1854V50.2264H358.229V63.1854C358.229 64.8763 359.039 65.3182 360.362 65.3182H367.641C368.965 65.3182 369.772 64.8763 369.772 63.1854V31.7186C369.772 20.1759 359.039 15.8377 350.29 15.8377V15.8377ZM124.255 16.867C122.564 16.867 122.124 17.6765 122.124 18.9998V63.1854C122.124 64.8763 122.931 65.3162 124.255 65.3162H131.534C132.857 65.3162 133.667 64.8763 133.667 63.1854V38.2615L141.092 51.1268C141.46 51.7149 142.048 52.6717 143.151 52.6717H146.827C147.93 52.6717 148.59 51.7149 148.958 51.1268L156.311 38.2615V63.1854C156.311 64.8763 157.119 65.3162 158.442 65.3162H165.501C166.824 65.3162 167.631 64.8763 167.631 63.1854V18.9998C167.631 17.6765 167.192 16.867 165.501 16.867H158.442C156.016 16.867 155.648 18.4848 155.133 19.367L144.989 37.453L134.917 19.367C134.328 18.4848 134.034 16.867 131.534 16.867H124.255ZM218.618 16.9412C216.927 16.9412 216.485 17.7487 216.485 19.0721V63.1854C216.485 64.8763 217.294 65.3163 218.618 65.3163H225.895C227.219 65.3163 228.028 64.8763 228.028 63.1854V50.9803H235.085C247.657 50.9803 254.421 44.2172 254.421 33.9979C254.421 23.8521 247.804 16.9412 235.159 16.9412H218.618ZM261.044 16.9412C259.353 16.9412 258.911 17.7487 258.911 19.0721V63.1854C258.911 64.5087 259.353 65.3163 261.044 65.3163H293.979C295.67 65.3163 296.112 64.5087 296.112 63.1854V57.1561C296.112 55.8327 295.67 55.0232 293.979 55.0233H270.526V45.3201H290.231C291.922 45.3201 292.362 44.5107 292.362 43.1873V37.453C292.362 36.1295 291.922 35.3201 290.231 35.3201H270.526V27.3065H292.729C294.42 27.3065 294.862 26.499 294.862 25.1756V19.0721C294.862 17.7487 294.42 16.9412 292.729 16.9412L261.044 16.9412ZM303.051 16.9412C301.36 16.9412 300.921 17.7487 300.921 19.0721V25.0272C300.921 26.3505 301.36 27.16 303.051 27.16H307.536V55.244H302.905C301.214 55.244 300.772 56.0534 300.772 57.3768V63.1854C300.772 64.5087 301.214 65.3163 302.905 65.3163H323.712C325.403 65.3163 325.842 64.5088 325.842 63.1854V57.3768C325.842 56.0534 325.403 55.244 323.712 55.244H319.079V27.16H323.491C325.182 27.16 325.622 26.3506 325.622 25.0272V19.0721C325.622 17.7487 325.182 16.9412 323.491 16.9412H303.051ZM54.3502 25.3475C52.7092 25.3475 51.0842 25.6706 49.5681 26.2986C48.052 26.9266 46.6744 27.847 45.5141 29.0074C44.3537 30.1678 43.4332 31.5454 42.8053 33.0615C42.1773 34.5776 41.8541 36.2026 41.8541 37.8436C41.8541 39.4846 42.1773 41.1096 42.8053 42.6257C43.4332 44.1418 44.3537 45.5194 45.5141 46.6798C46.6744 47.8401 48.052 48.7606 49.5681 49.3886C51.0842 50.0165 52.7092 50.3397 54.3502 50.3397C55.9913 50.3397 57.6162 50.0166 59.1323 49.3886C60.6485 48.7606 62.026 47.8402 63.1864 46.6798C64.3468 45.5194 65.2672 44.1418 65.8952 42.6257C66.5232 41.1096 66.8464 39.4846 66.8463 37.8436C66.8464 36.2026 66.5232 34.5776 65.8952 33.0615C65.2672 31.5454 64.3468 30.1678 63.1864 29.0074C62.026 27.847 60.6485 26.9266 59.1323 26.2986C57.6162 25.6706 55.9913 25.3475 54.3502 25.3475V25.3475ZM192.073 26.0565C196.925 26.0565 200.014 28.704 200.014 33.3358V40.4413H184.208V33.3358C184.208 28.704 187.221 26.0565 192.073 26.0565ZM350.29 26.0565C355.142 26.0565 358.229 28.704 358.229 33.3358V40.2264H342.423V33.3358C342.423 28.704 345.437 26.0565 350.29 26.0565ZM228.028 27.3065H235.085C240.819 27.3065 243.319 30.3956 243.319 34.2186C243.319 37.8946 240.819 41.0545 235.085 41.0545H228.028V27.3065ZM360.467 73.8534C359.882 73.8534 359.371 74.0522 358.936 74.4491C358.52 74.827 358.313 75.3378 358.313 75.9803C358.313 76.6228 358.52 77.1421 358.936 77.5389C359.371 77.9169 359.882 78.1053 360.467 78.1053C361.091 78.1053 361.602 77.9168 361.999 77.5389C362.414 77.1421 362.622 76.6228 362.622 75.9803C362.622 75.3378 362.414 74.827 361.999 74.4491C361.602 74.0522 361.091 73.8534 360.467 73.8534ZM242.331 74.0526V81.6483H241.848C241.64 81.2703 241.347 80.9207 240.969 80.5995C240.61 80.2782 240.129 80.0144 239.524 79.8065C238.919 79.5987 238.182 79.494 237.313 79.494C236.16 79.494 235.093 79.7786 234.11 80.3456C233.146 80.8936 232.372 81.7059 231.786 82.7831C231.2 83.8602 230.907 85.1541 230.907 86.6659V87.119C230.907 88.6307 231.2 89.9266 231.786 91.0038C232.372 92.0809 233.155 92.9017 234.137 93.4686C235.12 94.0166 236.179 94.2909 237.313 94.2909C238.636 94.2909 239.647 94.0647 240.346 93.6112C241.046 93.1388 241.565 92.6176 241.905 92.0506H242.387V93.8944H245.561V74.0526H242.331ZM298.907 74.0526V93.8944H302.11V92.0506H302.592C302.914 92.6176 303.424 93.1388 304.124 93.6112C304.842 94.0647 305.861 94.2909 307.184 94.2909C308.318 94.2909 309.367 94.0166 310.331 93.4686C311.313 92.9017 312.098 92.0809 312.684 91.0038C313.27 89.9266 313.561 88.6307 313.561 87.119V86.6659C313.561 85.1541 313.27 83.8602 312.684 82.7831C312.098 81.7059 311.322 80.8936 310.358 80.3456C309.394 79.7786 308.337 79.494 307.184 79.494C306.296 79.494 305.551 79.5986 304.946 79.8065C304.36 80.0144 303.877 80.2782 303.499 80.5995C303.14 80.9207 302.857 81.2703 302.649 81.6483H302.167V74.0526H298.907ZM366.251 74.0526V93.8944H369.51V74.0526H366.251ZM152.645 79.494C151.436 79.494 150.414 79.6844 149.583 80.0624C148.751 80.4214 148.081 80.903 147.571 81.5077C147.08 82.1124 146.72 82.7824 146.493 83.5194L149.499 84.5116C149.65 83.8124 149.962 83.245 150.434 82.8104C150.926 82.3569 151.644 82.1307 152.589 82.1307C153.552 82.1307 154.26 82.3673 154.714 82.8397C155.167 83.2932 155.393 83.8879 155.393 84.6249V85.4764H151.34C150.301 85.4764 149.376 85.646 148.563 85.9862C147.751 86.3074 147.108 86.789 146.635 87.4315C146.182 88.074 145.956 88.8675 145.956 89.8123C145.956 90.7761 146.182 91.5885 146.635 92.2499C147.108 92.9113 147.74 93.4221 148.534 93.7811C149.328 94.1213 150.217 94.2909 151.2 94.2909C152.183 94.2909 152.957 94.1589 153.524 93.8944C154.11 93.6109 154.543 93.2801 154.827 92.9022C155.11 92.5242 155.309 92.2019 155.423 91.9373H155.905V91.994C155.905 92.5798 156.121 93.0445 156.555 93.3846C156.99 93.7248 157.549 93.8944 158.229 93.8944H160.524V91.201H159.335C158.806 91.201 158.54 90.9183 158.54 90.3514V84.8514C158.54 83.1129 158.012 81.7897 156.954 80.8827C155.914 79.9567 154.478 79.494 152.645 79.494V79.494ZM171.495 79.494C170.172 79.494 169.15 79.7221 168.432 80.1756C167.733 80.6292 167.224 81.1484 166.903 81.7342H166.421V79.8905H163.217V99.5623H166.477V92.1365H166.96C167.168 92.4767 167.45 92.8179 167.809 93.158C168.187 93.4982 168.669 93.7705 169.255 93.9783C169.859 94.1862 170.607 94.2908 171.495 94.2908C172.648 94.2908 173.705 94.0166 174.669 93.4686C175.632 92.9017 176.407 92.0809 176.993 91.0037C177.579 89.9266 177.872 88.6307 177.872 87.119V86.6658C177.872 85.1541 177.578 83.8602 176.993 82.783C176.407 81.7059 175.624 80.8935 174.641 80.3455C173.678 79.7786 172.629 79.494 171.495 79.494V79.494ZM187.651 79.494C186.272 79.494 185.053 79.7975 183.995 80.4022C182.937 80.988 182.114 81.8192 181.528 82.8963C180.942 83.9735 180.649 85.2486 180.649 86.7225V87.0624C180.649 88.5175 180.942 89.7925 181.528 90.8885C182.133 91.9657 182.964 92.8073 184.022 93.412C185.099 93.9978 186.339 94.2909 187.737 94.2909C189.003 94.2909 190.052 94.092 190.883 93.6952C191.715 93.2794 192.377 92.7894 192.868 92.2225C193.378 91.6367 193.765 91.0882 194.03 90.578L191.337 89.1893C191.072 89.7751 190.685 90.3028 190.174 90.7752C189.664 91.2288 188.879 91.4569 187.821 91.4569C186.744 91.4569 185.837 91.1261 185.1 90.4647C184.363 89.8033 183.976 88.924 183.938 87.828H194.454V86.6659C194.454 85.2297 194.171 83.9735 193.604 82.8963C193.037 81.8192 192.244 80.988 191.223 80.4022C190.203 79.7975 189.012 79.494 187.651 79.494V79.494ZM203.581 79.494C202.371 79.494 201.352 79.6844 200.52 80.0624C199.689 80.4214 199.019 80.903 198.508 81.5077C198.017 82.1124 197.657 82.7824 197.43 83.5194L200.434 84.5116C200.585 83.8124 200.897 83.245 201.37 82.8104C201.861 82.3569 202.579 82.1307 203.524 82.1307C204.488 82.1307 205.197 82.3673 205.651 82.8397C206.105 83.2932 206.331 83.8879 206.331 84.6249V85.4764H202.278C201.239 85.4764 200.313 85.646 199.501 85.9862C198.688 86.3074 198.045 86.789 197.573 87.4315C197.119 88.074 196.891 88.8675 196.891 89.8123C196.891 90.7761 197.12 91.5885 197.573 92.2499C198.045 92.9113 198.678 93.4221 199.471 93.7811C200.265 94.1213 201.153 94.2909 202.135 94.2909C203.118 94.2909 203.893 94.1589 204.46 93.8944C205.045 93.6109 205.481 93.2801 205.764 92.9022C206.048 92.5242 206.247 92.2019 206.36 91.9373H206.84V91.994C206.84 92.5798 207.058 93.0445 207.493 93.3846C207.927 93.7248 208.484 93.8944 209.165 93.8944H211.462V91.201H210.27C209.741 91.201 209.477 90.9183 209.477 90.3514V84.8514C209.477 83.1129 208.948 81.7897 207.889 80.8827C206.85 79.9567 205.414 79.494 203.581 79.494V79.494ZM256.333 79.494C254.934 79.494 253.678 79.7786 252.563 80.3456C251.467 80.9125 250.598 81.7333 249.956 82.8104C249.332 83.8875 249.02 85.173 249.02 86.6659V87.119C249.02 88.6119 249.332 89.8973 249.956 90.9745C250.598 92.0327 251.467 92.8554 252.563 93.4413C253.678 94.0082 254.934 94.2909 256.333 94.2909C257.731 94.2909 258.979 94.0082 260.075 93.4413C261.171 92.8554 262.029 92.0327 262.653 90.9745C263.295 89.8973 263.618 88.6119 263.618 87.119V86.6659C263.618 85.173 263.295 83.8875 262.653 82.8104C262.029 81.7333 261.171 80.9125 260.075 80.3456C258.979 79.7786 257.731 79.494 256.333 79.494ZM280.936 79.494C279.538 79.494 278.282 79.7786 277.167 80.3456C276.071 80.9125 275.202 81.7333 274.559 82.8104C273.936 83.8875 273.624 85.173 273.624 86.6659V87.119C273.624 88.6119 273.935 89.8973 274.559 90.9745C275.202 92.0327 276.071 92.8554 277.167 93.4413C278.282 94.0082 279.538 94.2909 280.936 94.2909C282.335 94.2909 283.582 94.0082 284.678 93.4413C285.774 92.8554 286.633 92.0327 287.257 90.9745C287.899 89.8973 288.221 88.6119 288.221 87.119V86.6659C288.221 85.173 287.899 83.8875 287.257 82.8104C286.633 81.7333 285.774 80.9125 284.678 80.3456C283.582 79.7786 282.335 79.494 280.936 79.494ZM333.51 79.494C332.301 79.494 331.281 79.6844 330.45 80.0624C329.618 80.4214 328.946 80.903 328.436 81.5077C327.945 82.1124 327.587 82.7824 327.36 83.5194L330.364 84.5116C330.515 83.8124 330.827 83.245 331.299 82.8104C331.791 82.3569 332.509 82.1307 333.454 82.1307C334.418 82.1307 335.127 82.3673 335.581 82.8397C336.034 83.2932 336.26 83.8879 336.26 84.6249V85.4764H332.208C331.168 85.4764 330.241 85.646 329.428 85.9862C328.616 86.3074 327.975 86.789 327.503 87.4315C327.049 88.074 326.821 88.8675 326.821 89.8123C326.821 90.7761 327.049 91.5885 327.503 92.2499C327.975 92.9113 328.607 93.4221 329.401 93.7811C330.195 94.1213 331.082 94.2909 332.065 94.2909C333.048 94.2909 333.822 94.1589 334.389 93.8944C334.975 93.6109 335.411 93.2801 335.694 92.9022C335.977 92.5242 336.176 92.2019 336.29 91.9373H336.77V91.994C336.77 92.5798 336.988 93.0445 337.423 93.3846C337.857 93.7248 338.414 93.8944 339.094 93.8944H341.391V91.201H340.2C339.671 91.201 339.407 90.9183 339.407 90.3514V84.8514C339.407 83.1129 338.877 81.7897 337.819 80.8827C336.78 79.9567 335.343 79.494 333.51 79.494V79.494ZM349.186 79.494C347.542 79.494 346.211 79.8624 345.19 80.5995C344.189 81.3364 343.686 82.3854 343.686 83.746C343.686 84.6341 343.923 85.3711 344.395 85.9569C344.886 86.5238 345.529 86.9781 346.323 87.3182C347.117 87.6394 347.996 87.8949 348.96 88.0838L349.839 88.2245C350.708 88.3945 351.35 88.6038 351.766 88.8495C352.201 89.0951 352.417 89.472 352.417 89.9823C352.417 90.4736 352.191 90.8798 351.737 91.201C351.302 91.5223 350.641 91.6834 349.753 91.6834C349.167 91.6834 348.618 91.5976 348.108 91.4276C347.617 91.2575 347.202 90.9644 346.862 90.5487C346.522 90.1329 346.285 89.5676 346.153 88.8495L343.149 89.6131C343.395 91.1438 344.102 92.3058 345.274 93.0994C346.446 93.8931 347.938 94.2909 349.753 94.2909C351.529 94.2909 352.938 93.9035 353.977 93.1287C355.035 92.3351 355.563 91.2108 355.563 89.7557C355.563 88.792 355.318 88.0257 354.827 87.4588C354.335 86.8919 353.665 86.4584 352.815 86.1561C351.984 85.8538 351.048 85.6068 350.008 85.4178L349.13 85.2479C348.43 85.1345 347.873 84.9564 347.458 84.7108C347.042 84.4651 346.833 84.0966 346.833 83.6053C346.833 83.114 347.031 82.7351 347.428 82.4705C347.844 82.206 348.43 82.074 349.186 82.074C349.923 82.074 350.547 82.2437 351.057 82.5838C351.568 82.9051 351.898 83.462 352.049 84.2557L355.053 83.3494C354.751 82.1778 354.089 81.242 353.069 80.5428C352.049 79.8436 350.755 79.494 349.186 79.494V79.494ZM129.854 79.6365C128.89 79.6365 128.116 79.825 127.53 80.203C126.963 80.562 126.557 80.9786 126.311 81.451H125.829V79.8905H122.626V93.8944H125.887V85.5897C125.887 84.5503 126.132 83.7549 126.624 83.2069C127.115 82.64 127.795 82.3573 128.665 82.3573C129.439 82.3573 130.044 82.575 130.479 83.0096C130.914 83.4253 131.13 84.0388 131.13 84.8514V93.8944H134.362V85.5897C134.362 84.5503 134.607 83.7549 135.098 83.2069C135.609 82.64 136.289 82.3573 137.139 82.3573C137.914 82.3573 138.519 82.575 138.954 83.0096C139.388 83.4253 139.606 84.0388 139.606 84.8514V93.8944H142.866V84.6248C142.866 83.5288 142.648 82.6118 142.214 81.8748C141.798 81.1379 141.23 80.5809 140.512 80.203C139.813 79.825 139.03 79.6365 138.161 79.6365C137.046 79.6365 136.185 79.8439 135.581 80.2596C134.976 80.6753 134.513 81.205 134.192 81.8475H133.739C133.418 81.205 132.945 80.6753 132.321 80.2596C131.697 79.8439 130.875 79.6365 129.854 79.6365V79.6365ZM222.09 79.6365C220.787 79.6365 219.813 79.8731 219.171 80.3455C218.528 80.818 218.084 81.3184 217.839 81.8475H217.358V79.8905H214.155V93.8944H217.415V86.8084C217.415 85.3912 217.745 84.3045 218.407 83.5487C219.068 82.7739 219.975 82.3866 221.128 82.3866C222.148 82.3866 222.931 82.6693 223.479 83.2362C224.046 83.7842 224.331 84.6258 224.331 85.7596V93.8944H227.59V85.5037C227.59 84.3132 227.354 83.2832 226.882 82.4139C226.428 81.5446 225.785 80.8642 224.954 80.3729C224.122 79.8816 223.168 79.6365 222.09 79.6365V79.6365ZM323.51 79.8338C322.83 79.8338 322.246 79.9677 321.755 80.2323C321.263 80.4968 320.914 80.9218 320.706 81.5076H320.223V79.8904H317.02V93.8944H320.28V85.7869C320.28 84.7476 320.573 83.9833 321.159 83.492C321.745 82.9818 322.509 82.7264 323.454 82.7264H325.212V79.8338H323.51ZM358.852 79.8905V93.8944H362.112V79.8905H358.852ZM170.53 82.3299C171.702 82.3299 172.675 82.7069 173.45 83.4627C174.225 84.2186 174.612 85.3156 174.612 86.7518V87.035C174.612 88.4523 174.225 89.5473 173.45 90.3221C172.694 91.078 171.72 91.4569 170.53 91.4569C169.358 91.4569 168.376 91.078 167.583 90.3221C166.808 89.5473 166.421 88.4523 166.421 87.035V86.7518C166.421 85.3156 166.808 84.2186 167.583 83.4627C168.376 82.7069 169.358 82.3299 170.53 82.3299ZM187.624 82.3299C188.625 82.3299 189.438 82.6022 190.061 83.1502C190.704 83.6983 191.062 84.4352 191.137 85.3612H183.965C184.117 84.4352 184.504 83.6983 185.128 83.1502C185.751 82.6022 186.584 82.3299 187.624 82.3299ZM238.276 82.3299C239.467 82.3299 240.44 82.7069 241.196 83.4627C241.971 84.2186 242.358 85.3156 242.358 86.7518V87.035C242.358 88.4523 241.971 89.5473 241.196 90.3221C240.421 91.078 239.448 91.4569 238.276 91.4569C237.104 91.4569 236.122 91.078 235.329 90.3221C234.554 89.5473 234.167 88.4523 234.167 87.035V86.7518C234.167 85.3156 234.554 84.2186 235.329 83.4627C236.122 82.7069 237.104 82.3299 238.276 82.3299ZM306.221 82.3299C307.412 82.3299 308.383 82.7069 309.139 83.4627C309.914 84.2186 310.301 85.3156 310.301 86.7518V87.035C310.301 88.4523 309.914 89.5473 309.139 90.3221C308.365 91.078 307.393 91.4569 306.221 91.4569C305.05 91.4569 304.066 91.078 303.272 90.3221C302.497 89.5473 302.11 88.4523 302.11 87.035V86.7518C302.11 85.3156 302.497 84.2186 303.272 83.4627C304.066 82.7069 305.05 82.3299 306.221 82.3299ZM256.333 82.3866C257.523 82.3866 258.497 82.7739 259.253 83.5487C260.008 84.3046 260.385 85.3723 260.385 86.7518V87.035C260.385 88.4145 260.009 89.4907 259.253 90.2655C258.497 91.0213 257.523 91.4002 256.333 91.4002C255.142 91.4002 254.169 91.0213 253.413 90.2655C252.657 89.4907 252.28 88.4145 252.28 87.035V86.7518C252.28 85.3723 252.657 84.3046 253.413 83.5487C254.169 82.7739 255.142 82.3866 256.333 82.3866ZM280.936 82.3866C282.127 82.3866 283.1 82.7739 283.856 83.5487C284.612 84.3046 284.989 85.3723 284.989 86.7518V87.035C284.989 88.4145 284.612 89.4907 283.856 90.2655C283.1 91.0213 282.127 91.4002 280.936 91.4002C279.746 91.4002 278.772 91.0213 278.016 90.2655C277.26 89.4907 276.883 88.4145 276.883 87.035V86.7518C276.883 85.3723 277.26 84.3046 278.016 83.5487C278.772 82.7739 279.746 82.3866 280.936 82.3866ZM151.54 87.9413H155.393V88.2245C155.393 89.2638 155.054 90.095 154.374 90.7186C153.693 91.3233 152.814 91.6268 151.737 91.6268C150.943 91.6268 150.319 91.4572 149.866 91.117C149.412 90.758 149.186 90.2933 149.186 89.7264C149.186 89.1406 149.404 88.6967 149.839 88.3944C150.273 88.092 150.841 87.9413 151.54 87.9413ZM202.475 87.9413H206.331V88.2245C206.331 89.2638 205.991 90.095 205.311 90.7186C204.631 91.3233 203.752 91.6268 202.674 91.6268C201.881 91.6268 201.257 91.4572 200.803 91.117C200.35 90.758 200.124 90.2933 200.124 89.7264C200.124 89.1406 200.341 88.6967 200.776 88.3944C201.211 88.092 201.776 87.9413 202.475 87.9413ZM332.405 87.9413H336.26V88.2245C336.26 89.2638 335.921 90.095 335.241 90.7186C334.561 91.3233 333.681 91.6268 332.604 91.6268C331.81 91.6268 331.187 91.4572 330.733 91.117C330.28 90.758 330.053 90.2933 330.053 89.7264C330.053 89.1406 330.269 88.6967 330.704 88.3944C331.138 88.092 331.706 87.9413 332.405 87.9413Z" fill="#00E77D"/>
</svg>
