<svg width="370" height="100" viewBox="0 0 370 100" fill="none" xmlns="http://www.w3.org/2000/svg">
<path d="M70.8463 0.565171C70.5175 0.563168 70.1866 0.563608 69.8561 0.567161V0.569122C64.2753 0.520744 59.0676 1.83438 54.3502 3.85034C49.6333 1.8348 44.4245 0.520593 38.8444 0.569122C28.2668 0.455358 18.5625 3.18009 11.4264 9.42459C4.27975 15.6783 0.0880237 25.3394 0.000641002 37.614C-0.00215585 37.9738 0.0119796 38.1423 0.0119796 38.1258C0.0112993 38.1662 0.000641002 38.3162 0.000641002 38.6043C0.000605178 38.6144 0.000605178 38.6244 0.000641002 38.6345C0.0868142 50.9119 4.27865 60.5731 11.4264 66.8279C18.5625 73.0724 28.2668 75.7973 38.8444 75.6833C44.4253 75.7317 49.6346 74.4174 54.3522 72.4021C59.0691 74.4169 64.2761 75.7319 69.8561 75.6833C80.4337 75.7971 90.138 73.0704 97.2741 66.8259C104.422 60.5711 108.616 50.9099 108.702 38.6325C108.702 38.6319 108.702 38.6312 108.702 38.6306C108.702 38.63 108.702 38.6293 108.702 38.6286C108.702 38.628 108.702 38.6273 108.702 38.6267C108.702 38.626 108.702 38.6254 108.702 38.6248C108.702 38.6241 108.702 38.6234 108.702 38.6228C108.702 38.6221 108.702 38.6215 108.702 38.6208C108.702 38.6202 108.702 38.6195 108.702 38.6189C108.702 38.6182 108.702 38.6176 108.702 38.6169C108.702 38.6163 108.702 38.6156 108.702 38.615C108.702 38.6143 108.702 38.6137 108.702 38.613C108.702 38.6124 108.702 38.6117 108.702 38.6111C108.702 38.6104 108.702 38.6098 108.702 38.6091C108.702 38.6085 108.702 38.6078 108.702 38.6071C108.702 38.6065 108.702 38.6059 108.702 38.6052C108.702 38.3172 108.69 38.165 108.69 38.1247V38.1134V38.1058C108.691 38.1134 108.706 37.9569 108.702 37.6156C108.616 25.3382 104.422 15.677 97.2741 9.42223C90.361 3.37287 81.0389 0.62516 70.8463 0.562836V0.565171ZM38.7956 9.06715C38.8268 9.06749 38.8581 9.06749 38.8893 9.06715C40.6613 9.04825 42.4279 9.2482 44.1745 9.60816C38.943 13.2891 34.7923 17.3108 32.0358 20.0437C24.5711 27.4446 20.7707 31.0549 16.7057 35.1199C15.9091 35.9174 15.4616 36.9985 15.4616 38.1258C15.4616 39.253 15.9091 40.3341 16.7057 41.1316C20.7702 45.1961 24.5708 48.8125 32.0358 56.2136C34.7917 58.9459 38.9411 62.9644 44.1705 66.6433C42.4252 67.0028 40.6601 67.2002 38.8893 67.1824C38.8581 67.182 38.8268 67.182 38.7956 67.1824C29.7115 67.2882 22.2166 64.9632 17.0299 60.4246C11.8433 55.8859 8.58372 49.0176 8.5104 38.5711C8.51131 38.5329 8.51418 38.407 8.51418 38.1414C8.51418 38.1407 8.51418 38.1401 8.51418 38.1394C8.51418 38.1388 8.51418 38.1381 8.51418 38.1375C8.51418 38.1368 8.51418 38.1362 8.51418 38.1355C8.51418 38.1349 8.51418 38.1342 8.51418 38.1336C8.51418 38.1329 8.51418 38.1323 8.51418 38.1316C8.51418 38.131 8.51418 38.1303 8.51418 38.1296C8.51418 38.129 8.51418 38.1284 8.51418 38.1277C8.51418 38.1271 8.51418 38.1264 8.51418 38.1258C8.51418 37.7905 8.5104 37.6516 8.5104 37.6902C8.5104 37.6895 8.5104 37.6889 8.5104 37.6882C8.5104 37.6876 8.5104 37.6869 8.5104 37.6863C8.5104 37.6856 8.5104 37.685 8.5104 37.6843C8.5104 37.6837 8.5104 37.683 8.5104 37.6824C8.5104 37.6817 8.5104 37.6811 8.5104 37.6804C8.5104 37.6798 8.5104 37.6791 8.5104 37.6785C8.58372 27.2321 11.8433 20.3655 17.0299 15.8269C22.2166 11.2883 29.7115 8.9614 38.7956 9.06715V9.06715ZM69.8131 9.06715C69.8444 9.06749 69.8756 9.06749 69.9068 9.06715C78.9909 8.96132 86.4839 11.2883 91.6705 15.8269C96.8571 20.3655 100.119 27.234 100.192 37.6804C100.192 37.6842 100.192 37.688 100.192 37.6918C100.192 37.6525 100.188 37.7912 100.188 38.1273C100.188 38.1336 100.188 38.1399 100.188 38.1462C100.189 38.4115 100.192 38.5378 100.192 38.5759C100.119 49.0224 96.8571 55.8888 91.6705 60.4275C86.4839 64.9661 78.9909 67.2931 69.9068 67.1872C69.8756 67.1869 69.8444 67.1869 69.8131 67.1872C68.0423 67.2061 66.2773 67.0055 64.5319 66.6463C69.7611 62.9674 73.9108 58.9488 76.6666 56.2165C84.1316 48.8154 87.9303 45.199 91.9948 41.1345C92.7908 40.3371 93.2379 39.2564 93.2379 38.1296C93.2379 37.0029 92.7908 35.9222 91.9948 35.1247C87.9298 31.0597 84.1313 27.4475 76.6666 20.0466C73.9101 17.3137 69.7594 13.292 64.528 9.61107C66.2745 9.25088 68.0411 9.05422 69.8131 9.07202V9.06715ZM54.3522 13.491C61.2253 17.2333 67.1014 22.5384 70.6764 26.0828C76.6841 32.0392 79.6706 34.9217 82.9244 38.1258C79.6703 41.3306 76.6842 44.2182 70.6764 50.1746C67.101 53.7194 61.223 59.0215 54.3483 62.7624C47.4753 59.0216 41.5988 53.7188 38.0241 50.1746C32.0163 44.2182 29.0322 41.3306 25.778 38.1258C29.0318 34.9217 32.0163 32.0392 38.0241 26.0828C41.5997 22.5378 47.4777 17.2335 54.3522 13.491ZM192.073 16.1199C183.324 16.1199 172.665 20.4581 172.665 32.0007V63.4675C172.665 65.1585 173.472 65.6003 174.796 65.6003H182.075C183.398 65.6003 184.208 65.1585 184.208 63.4675V50.7214H200.014V63.4675C200.014 65.1585 200.822 65.6003 202.145 65.6003H209.424C210.748 65.6003 211.557 65.1585 211.557 63.4675V32.0007C211.557 20.4581 200.822 16.1199 192.073 16.1199ZM350.29 16.1199C341.541 16.1199 330.881 20.4581 330.881 32.0007V63.4675C330.881 65.1585 331.689 65.6003 333.012 65.6003H340.292C341.615 65.6003 342.423 65.1585 342.423 63.4675V50.5085H358.229V63.4675C358.229 65.1585 359.039 65.6003 360.362 65.6003H367.641C368.965 65.6003 369.772 65.1585 369.772 63.4675V32.0007C369.772 20.4581 359.039 16.1199 350.29 16.1199V16.1199ZM124.255 17.1492C122.564 17.1492 122.124 17.9587 122.124 19.282V63.4675C122.124 65.1585 122.931 65.5984 124.255 65.5984H131.534C132.857 65.5984 133.667 65.1585 133.667 63.4675V38.5437L141.092 51.4089C141.46 51.9971 142.048 52.9539 143.151 52.9539H146.827C147.93 52.9539 148.59 51.9971 148.958 51.4089L156.311 38.5437V63.4675C156.311 65.1585 157.119 65.5984 158.442 65.5984H165.501C166.824 65.5984 167.631 65.1585 167.631 63.4675V19.282C167.631 17.9587 167.192 17.1492 165.501 17.1492H158.442C156.016 17.1492 155.648 18.7669 155.133 19.6492L144.989 37.7351L134.917 19.6492C134.328 18.7669 134.034 17.1492 131.534 17.1492H124.255ZM218.618 17.2233C216.927 17.2233 216.485 18.0308 216.485 19.3541V63.4674C216.485 65.1583 217.294 65.5983 218.618 65.5983H225.895C227.219 65.5983 228.028 65.1583 228.028 63.4674V51.2623H235.085C247.657 51.2623 254.421 44.4992 254.421 34.2799C254.421 24.134 247.804 17.2233 235.159 17.2233H218.618ZM261.044 17.2233C259.353 17.2233 258.911 18.0307 258.911 19.3541V63.4674C258.911 64.7907 259.353 65.5983 261.044 65.5983H293.979C295.67 65.5983 296.112 64.7907 296.112 63.4674V57.4381C296.112 56.1147 295.67 55.3052 293.979 55.3053H270.526V45.6021H290.231C291.922 45.6021 292.362 44.7927 292.362 43.4693V37.735C292.362 36.4116 291.922 35.6022 290.231 35.6022H270.526V27.5885H292.729C294.42 27.5885 294.862 26.781 294.862 25.4577V19.3543C294.862 18.0309 294.42 17.2234 292.729 17.2234L261.044 17.2233ZM303.051 17.2233C301.36 17.2233 300.921 18.0308 300.921 19.3541V25.3092C300.921 26.6325 301.36 27.442 303.051 27.442H307.536V55.526H302.905C301.214 55.526 300.772 56.3354 300.772 57.6588V63.4674C300.772 64.7907 301.214 65.5983 302.905 65.5983H323.712C325.403 65.5983 325.842 64.7908 325.842 63.4674V57.6588C325.842 56.3354 325.403 55.526 323.712 55.526H319.079V27.442H323.491C325.182 27.442 325.622 26.6326 325.622 25.3092V19.3543C325.622 18.0309 325.182 17.2234 323.491 17.2234L303.051 17.2233ZM54.3502 25.6295C52.7092 25.6294 51.0842 25.9526 49.5681 26.5806C48.052 27.2086 46.6744 28.129 45.514 29.2894C44.3537 30.4498 43.4332 31.8274 42.8052 33.3435C42.1773 34.8596 41.8541 36.4846 41.8541 38.1256C41.8541 39.7666 42.1773 41.3916 42.8052 42.9077C43.4332 44.4238 44.3537 45.8014 45.514 46.9618C46.6744 48.1222 48.052 49.0426 49.5681 49.6706C51.0842 50.2986 52.7092 50.6218 54.3502 50.6217C55.9913 50.6218 57.6162 50.2986 59.1323 49.6706C60.6485 49.0426 62.026 48.1222 63.1864 46.9618C64.3468 45.8014 65.2673 44.4238 65.8952 42.9077C66.5232 41.3916 66.8464 39.7666 66.8463 38.1256C66.8464 36.4846 66.5232 34.8596 65.8952 33.3435C65.2673 31.8274 64.3468 30.4498 63.1864 29.2894C62.026 28.129 60.6485 27.2086 59.1323 26.5806C57.6162 25.9526 55.9913 25.6294 54.3502 25.6295V25.6295ZM192.073 26.3385C196.925 26.3385 200.014 28.986 200.014 33.6178V40.7233H184.208V33.6178C184.208 28.986 187.221 26.3385 192.073 26.3385ZM350.29 26.3385C355.142 26.3385 358.229 28.986 358.229 33.6178V40.5084H342.423V33.6178C342.423 28.986 345.437 26.3385 350.29 26.3385ZM228.028 27.5885H235.085C240.819 27.5885 243.319 30.6776 243.319 34.5006C243.319 38.1766 240.819 41.3365 235.085 41.3365H228.028V27.5885ZM360.467 74.1354C359.882 74.1354 359.371 74.3341 358.936 74.7311C358.52 75.109 358.313 75.6198 358.313 76.2623C358.313 76.9048 358.521 77.4241 358.936 77.8209C359.371 78.1989 359.882 78.3873 360.467 78.3873C361.091 78.3873 361.602 78.1987 361.999 77.8209C362.414 77.4241 362.622 76.9048 362.622 76.2623C362.622 75.6198 362.415 75.109 361.999 74.7311C361.602 74.3342 361.091 74.1354 360.467 74.1354ZM242.331 74.3345V81.9302H241.848C241.64 81.5523 241.347 81.2026 240.969 80.8814C240.61 80.5602 240.129 80.2963 239.524 80.0885C238.919 79.8806 238.182 79.7759 237.313 79.7759C236.16 79.7759 235.093 80.0605 234.11 80.6274C233.146 81.1754 232.372 81.9878 231.786 83.0649C231.2 84.1421 230.907 85.436 230.907 86.9478V87.4009C230.907 88.9126 231.2 90.2085 231.786 91.2856C232.372 92.3628 233.155 93.1836 234.137 93.7505C235.12 94.2985 236.179 94.5728 237.313 94.5728C238.636 94.5728 239.647 94.3467 240.346 93.893C241.046 93.4206 241.565 92.8994 241.905 92.3325H242.387V94.1763H245.561V74.3344L242.331 74.3345ZM298.907 74.3345V94.1763H302.11V92.3326H302.592C302.914 92.8995 303.424 93.4207 304.124 93.8931C304.842 94.3466 305.861 94.5728 307.184 94.5728C308.318 94.5728 309.367 94.2984 310.331 93.7505C311.313 93.1836 312.098 92.3628 312.684 91.2857C313.27 90.2086 313.561 88.9127 313.561 87.401V86.9478C313.561 85.4361 313.27 84.1421 312.684 83.065C312.098 81.9879 311.322 81.1755 310.358 80.6275C309.394 80.0606 308.337 79.776 307.184 79.776C306.296 79.776 305.551 79.8806 304.946 80.0885C304.36 80.2964 303.877 80.5603 303.499 80.8815C303.14 81.2028 302.857 81.5524 302.649 81.9303H302.167V74.3346L298.907 74.3345ZM366.251 74.3345V94.1763H369.51V74.3345H366.251ZM152.645 79.776C151.436 79.776 150.414 79.9664 149.583 80.3443C148.751 80.7034 148.081 81.1849 147.571 81.7896C147.08 82.3943 146.72 83.0644 146.493 83.8013L149.499 84.7935C149.65 84.0943 149.962 83.527 150.434 83.0924C150.926 82.6388 151.644 82.4126 152.589 82.4126C153.552 82.4126 154.26 82.6493 154.714 83.1216C155.167 83.5752 155.393 84.1698 155.393 84.9068V85.7584H151.34C150.301 85.7584 149.376 85.9281 148.563 86.2681C147.751 86.5894 147.108 87.0709 146.635 87.7134C146.182 88.3559 145.956 89.1495 145.956 90.0943C145.956 91.0581 146.182 91.8704 146.635 92.5318C147.108 93.1932 147.74 93.704 148.534 94.0631C149.327 94.4032 150.217 94.5728 151.2 94.5728C152.183 94.5728 152.957 94.4409 153.524 94.1763C154.11 93.8929 154.543 93.5621 154.827 93.1842C155.11 92.8062 155.309 92.4839 155.423 92.2193H155.905V92.276C155.905 92.8618 156.121 93.3265 156.555 93.6666C156.99 94.0068 157.549 94.1764 158.229 94.1764H160.524V91.483H159.335C158.805 91.483 158.54 91.2003 158.54 90.6334V85.1334C158.54 83.3949 158.012 82.0717 156.954 81.1646C155.914 80.2387 154.478 79.776 152.645 79.776V79.776ZM171.495 79.776C170.172 79.776 169.15 80.0039 168.432 80.4576C167.733 80.9111 167.224 81.4304 166.903 82.0162H166.421V80.1724H163.217V99.8443H166.477V92.4185H166.96C167.167 92.7587 167.45 93.0999 167.809 93.44C168.187 93.7801 168.669 94.0525 169.255 94.2603C169.859 94.4682 170.607 94.5729 171.495 94.5729C172.647 94.5729 173.705 94.2985 174.669 93.7506C175.632 93.1837 176.407 92.3629 176.993 91.2857C177.579 90.2086 177.872 88.9128 177.872 87.401V86.9478C177.872 85.4361 177.579 84.1422 176.993 83.0651C176.407 81.9879 175.624 81.1756 174.641 80.6276C173.677 80.0606 172.629 79.776 171.495 79.776V79.776ZM187.651 79.776C186.272 79.776 185.053 80.0794 183.995 80.6841C182.937 81.27 182.114 82.1012 181.528 83.1783C180.942 84.2554 180.649 85.5305 180.649 87.0045V87.3442C180.649 88.7993 180.942 90.0744 181.528 91.1704C182.133 92.2475 182.964 93.0892 184.022 93.6938C185.099 94.2797 186.339 94.5728 187.737 94.5728C189.003 94.5728 190.052 94.3739 190.883 93.977C191.715 93.5613 192.377 93.0713 192.868 92.5044C193.378 91.9186 193.765 91.3701 194.03 90.8599L191.337 89.4712C191.072 90.057 190.685 90.5847 190.174 91.0571C189.664 91.5107 188.879 91.7387 187.821 91.7387C186.744 91.7387 185.837 91.4081 185.1 90.7466C184.363 90.0852 183.976 89.2059 183.938 88.1099H194.454V86.9478C194.454 85.5116 194.171 84.2553 193.604 83.1782C193.037 82.1011 192.244 81.2699 191.223 80.684C190.203 80.0794 189.012 79.7759 187.651 79.7759V79.776ZM203.581 79.776C202.371 79.776 201.352 79.9664 200.52 80.3443C199.689 80.7034 199.019 81.1849 198.508 81.7896C198.017 82.3943 197.657 83.0644 197.43 83.8013L200.434 84.7935C200.585 84.0943 200.897 83.527 201.37 83.0924C201.861 82.6388 202.579 82.4126 203.524 82.4126C204.488 82.4126 205.198 82.6493 205.651 83.1216C206.105 83.5752 206.331 84.1698 206.331 84.9068V85.7584H202.278C201.239 85.7584 200.313 85.9281 199.501 86.2681C198.688 86.5894 198.045 87.0709 197.573 87.7134C197.119 88.3559 196.891 89.1495 196.891 90.0943C196.891 91.0581 197.119 91.8704 197.573 92.5318C198.045 93.1932 198.678 93.704 199.471 94.0631C200.265 94.4032 201.153 94.5728 202.135 94.5728C203.118 94.5728 203.893 94.4409 204.46 94.1763C205.045 93.8929 205.481 93.5621 205.764 93.1842C206.048 92.8062 206.247 92.4839 206.36 92.2193H206.84V92.276C206.84 92.8618 207.058 93.3265 207.493 93.6666C207.927 94.0068 208.484 94.1764 209.165 94.1764H211.462V91.483H210.27C209.741 91.483 209.477 91.2003 209.477 90.6334V85.1334C209.477 83.3949 208.948 82.0717 207.889 81.1646C206.85 80.2387 205.414 79.776 203.581 79.776V79.776ZM256.333 79.776C254.934 79.776 253.678 80.0606 252.563 80.6275C251.467 81.1944 250.598 82.0152 249.956 83.0924C249.332 84.1695 249.02 85.455 249.02 86.9478V87.401C249.02 88.8938 249.332 90.1793 249.956 91.2564C250.598 92.3147 251.467 93.1374 252.563 93.7232C253.678 94.2901 254.934 94.5728 256.333 94.5728C257.731 94.5728 258.979 94.2901 260.075 93.7232C261.171 93.1374 262.029 92.3147 262.653 91.2564C263.295 90.1793 263.618 88.8938 263.618 87.401V86.9478C263.618 85.455 263.295 84.1695 262.653 83.0924C262.029 82.0152 261.171 81.1944 260.075 80.6275C258.979 80.0606 257.731 79.776 256.333 79.776V79.776ZM280.936 79.776C279.538 79.776 278.282 80.0606 277.167 80.6275C276.071 81.1944 275.202 82.0152 274.559 83.0924C273.936 84.1695 273.624 85.455 273.624 86.9478V87.401C273.624 88.8938 273.935 90.1793 274.559 91.2564C275.202 92.3147 276.071 93.1374 277.167 93.7232C278.282 94.2901 279.538 94.5728 280.936 94.5728C282.335 94.5728 283.582 94.2901 284.678 93.7232C285.774 93.1374 286.633 92.3147 287.256 91.2564C287.899 90.1793 288.221 88.8938 288.221 87.401V86.9478C288.221 85.455 287.899 84.1695 287.256 83.0924C286.633 82.0152 285.774 81.1944 284.678 80.6275C283.582 80.0606 282.335 79.776 280.936 79.776V79.776ZM333.51 79.776C332.301 79.776 331.281 79.9664 330.45 80.3443C329.618 80.7034 328.946 81.1849 328.436 81.7896C327.945 82.3943 327.587 83.0644 327.36 83.8013L330.364 84.7935C330.515 84.0943 330.827 83.527 331.299 83.0924C331.791 82.6388 332.509 82.4126 333.454 82.4126C334.417 82.4126 335.127 82.6493 335.581 83.1216C336.034 83.5752 336.26 84.1698 336.26 84.9068V85.7584H332.208C331.168 85.7584 330.241 85.9281 329.428 86.2681C328.616 86.5894 327.975 87.0709 327.503 87.7134C327.049 88.3559 326.821 89.1495 326.821 90.0943C326.821 91.0581 327.049 91.8704 327.503 92.5318C327.975 93.1932 328.607 93.704 329.401 94.0631C330.195 94.4032 331.082 94.5728 332.065 94.5728C333.048 94.5728 333.822 94.4409 334.389 94.1763C334.975 93.8929 335.411 93.5621 335.694 93.1842C335.977 92.8062 336.176 92.4839 336.29 92.2193H336.77V92.276C336.77 92.8618 336.988 93.3265 337.422 93.6666C337.857 94.0068 338.414 94.1764 339.094 94.1764H341.391V91.483H340.2C339.671 91.483 339.407 91.2003 339.407 90.6334V85.1334C339.407 83.3949 338.877 82.0717 337.819 81.1646C336.78 80.2387 335.343 79.776 333.51 79.776V79.776ZM349.186 79.776C347.542 79.776 346.211 80.1445 345.19 80.8814C344.189 81.6184 343.686 82.6673 343.686 84.0279C343.686 84.9161 343.923 85.653 344.395 86.2388C344.886 86.8058 345.529 87.26 346.323 87.6002C347.117 87.9214 347.996 88.1768 348.96 88.3658L349.839 88.5064C350.708 88.6765 351.35 88.8857 351.766 89.1314C352.201 89.377 352.417 89.754 352.417 90.2642C352.417 90.7555 352.191 91.1617 351.737 91.4829C351.302 91.8042 350.641 91.9653 349.753 91.9653C349.167 91.9653 348.618 91.8795 348.108 91.7094C347.617 91.5394 347.202 91.2463 346.862 90.8305C346.522 90.4148 346.285 89.8494 346.153 89.1313L343.149 89.895C343.395 91.4257 344.102 92.5876 345.274 93.3813C346.446 94.175 347.938 94.5728 349.753 94.5728C351.529 94.5728 352.938 94.1854 353.977 93.4106C355.035 92.617 355.563 91.4927 355.563 90.0376C355.563 89.0739 355.318 88.3076 354.827 87.7407C354.335 87.1738 353.665 86.7403 352.815 86.438C351.984 86.1356 351.048 85.8887 350.008 85.6997L349.13 85.5296C348.43 85.4162 347.873 85.2382 347.458 84.9925C347.042 84.7468 346.833 84.3783 346.833 83.887C346.833 83.3957 347.031 83.0168 347.428 82.7522C347.844 82.4877 348.43 82.3557 349.186 82.3557C349.923 82.3557 350.547 82.5254 351.057 82.8655C351.568 83.1868 351.898 83.7437 352.049 84.5374L355.053 83.6312C354.751 82.4595 354.089 81.5237 353.069 80.8245C352.049 80.1253 350.755 79.7757 349.186 79.7757V79.776ZM129.854 79.9184C128.89 79.9184 128.116 80.107 127.53 80.4849C126.963 80.8439 126.557 81.2605 126.311 81.7329H125.829V80.1724H122.626V94.1763H125.887V85.8716C125.887 84.8323 126.132 84.0368 126.624 83.4888C127.115 82.9218 127.795 82.6391 128.665 82.6391C129.439 82.6391 130.044 82.8568 130.479 83.2915C130.914 83.7072 131.13 84.3207 131.13 85.1333V94.1763H134.362V85.8716C134.362 84.8323 134.607 84.0368 135.098 83.4888C135.608 82.9218 136.289 82.6391 137.139 82.6391C137.914 82.6391 138.519 82.8568 138.954 83.2915C139.388 83.7072 139.606 84.3207 139.606 85.1333V94.1763H142.866V84.9067C142.866 83.8107 142.648 82.8937 142.214 82.1567C141.798 81.4197 141.23 80.8628 140.512 80.4849C139.813 80.1069 139.03 79.9184 138.161 79.9184C137.046 79.9184 136.185 80.1259 135.581 80.5415C134.976 80.9572 134.513 81.4869 134.192 82.1294H133.739C133.418 81.4869 132.945 80.9572 132.321 80.5415C131.697 80.1257 130.875 79.9184 129.854 79.9184V79.9184ZM222.09 79.9184C220.787 79.9184 219.813 80.155 219.171 80.6274C218.528 81.0998 218.084 81.6003 217.839 82.1294H217.358V80.1724H214.155V94.1763H217.415V87.0903C217.415 85.6731 217.745 84.5864 218.407 83.8305C219.068 83.0558 219.975 82.6684 221.128 82.6684C222.148 82.6684 222.931 82.9512 223.479 83.5181C224.046 84.0661 224.331 84.9077 224.331 86.0415V94.1763H227.59V85.7857C227.59 84.5951 227.354 83.565 226.881 82.6958C226.428 81.8265 225.785 81.1461 224.954 80.6548C224.122 80.1635 223.168 79.9184 222.09 79.9184ZM323.51 80.1157C322.83 80.1157 322.246 80.2495 321.755 80.5142C321.263 80.7787 320.914 81.2038 320.706 81.7896H320.223V80.1724H317.02V94.1763H320.28V86.0689C320.28 85.0295 320.573 84.2653 321.159 83.774C321.745 83.2637 322.509 83.0083 323.454 83.0083H325.212V80.1157H323.51ZM358.852 80.1724V94.1763H362.112V80.1724H358.852ZM170.53 82.6119C171.702 82.6119 172.675 82.9887 173.45 83.7447C174.225 84.5006 174.612 85.5976 174.612 87.0337V87.3168C174.612 88.7341 174.225 89.8291 173.45 90.6039C172.694 91.3598 171.72 91.7387 170.53 91.7387C169.358 91.7387 168.376 91.3598 167.583 90.6039C166.808 89.8291 166.421 88.7341 166.421 87.3168V87.0337C166.421 85.5976 166.808 84.5006 167.583 83.7447C168.376 82.9888 169.358 82.6119 170.53 82.6119ZM187.624 82.6119C188.625 82.6119 189.438 82.8844 190.061 83.4322C190.704 83.9802 191.062 84.7172 191.137 85.6431H183.965C184.117 84.7172 184.504 83.9802 185.128 83.4322C185.751 82.8842 186.584 82.6119 187.624 82.6119ZM238.276 82.6119C239.467 82.6119 240.44 82.9887 241.196 83.7447C241.971 84.5006 242.358 85.5976 242.358 87.0337V87.3168C242.358 88.7341 241.971 89.8291 241.196 90.6039C240.421 91.3598 239.448 91.7387 238.276 91.7387C237.104 91.7387 236.122 91.3598 235.329 90.6039C234.554 89.8291 234.167 88.7341 234.167 87.3168V87.0337C234.167 85.5976 234.554 84.5006 235.329 83.7447C236.122 82.9888 237.104 82.6119 238.276 82.6119V82.6119ZM306.221 82.6119C307.412 82.6119 308.383 82.9887 309.139 83.7447C309.914 84.5006 310.301 85.5976 310.301 87.0337V87.3168C310.301 88.7341 309.914 89.8291 309.139 90.6039C308.364 91.3598 307.393 91.7387 306.221 91.7387C305.05 91.7387 304.066 91.3598 303.272 90.6039C302.497 89.8291 302.11 88.7341 302.11 87.3168V87.0337C302.11 85.5976 302.497 84.5006 303.272 83.7447C304.066 82.9888 305.05 82.6119 306.221 82.6119ZM256.333 82.6686C257.523 82.6686 258.497 83.0559 259.253 83.8307C260.008 84.5865 260.385 85.6543 260.385 87.0338V87.3169C260.385 88.6963 260.009 89.7726 259.253 90.5473C258.497 91.3032 257.523 91.6821 256.333 91.6821C255.142 91.6821 254.169 91.3032 253.413 90.5473C252.657 89.7726 252.28 88.6963 252.28 87.3169V87.0338C252.28 85.6543 252.657 84.5865 253.413 83.8307C254.169 83.0559 255.142 82.6686 256.333 82.6686V82.6686ZM280.936 82.6686C282.127 82.6686 283.1 83.0559 283.856 83.8307C284.612 84.5865 284.989 85.6543 284.989 87.0338V87.3169C284.989 88.6963 284.612 89.7726 283.856 90.5473C283.1 91.3032 282.127 91.6821 280.936 91.6821C279.746 91.6821 278.772 91.3032 278.016 90.5473C277.26 89.7726 276.883 88.6963 276.883 87.3169V87.0338C276.883 85.6543 277.26 84.5865 278.016 83.8307C278.772 83.0559 279.746 82.6686 280.936 82.6686V82.6686ZM151.54 88.2233H155.393V88.5063C155.393 89.5456 155.054 90.3769 154.374 91.0004C153.693 91.6052 152.814 91.9087 151.737 91.9087C150.943 91.9087 150.319 91.739 149.866 91.3989C149.412 91.0398 149.186 90.5752 149.186 90.0083C149.186 89.4225 149.404 88.9786 149.839 88.6762C150.273 88.3739 150.84 88.2232 151.54 88.2232V88.2233ZM202.475 88.2233H206.331V88.5063C206.331 89.5456 205.991 90.3769 205.311 91.0004C204.631 91.6052 203.752 91.9087 202.674 91.9087C201.881 91.9087 201.257 91.739 200.803 91.3989C200.35 91.0398 200.124 90.5752 200.124 90.0083C200.124 89.4225 200.341 88.9786 200.776 88.6762C201.211 88.3739 201.776 88.2232 202.475 88.2232V88.2233ZM332.405 88.2233H336.26V88.5063C336.26 89.5456 335.921 90.3769 335.241 91.0004C334.561 91.6052 333.681 91.9087 332.604 91.9087C331.81 91.9087 331.187 91.739 330.733 91.3989C330.28 91.0398 330.053 90.5752 330.053 90.0083C330.053 89.4225 330.269 88.9786 330.704 88.6762C331.138 88.3739 331.706 88.2232 332.405 88.2232V88.2233Z" fill="#230065"/>
</svg>
