<svg width="370" height="101" viewBox="0 0 370 101" fill="none" xmlns="http://www.w3.org/2000/svg">
<path d="M70.8463 0.846603C70.5175 0.8446 70.1866 0.845011 69.8561 0.848564V0.850524C64.2753 0.802146 59.0676 2.11581 54.3502 4.13177C49.6333 2.11623 44.4245 0.801995 38.8444 0.850524C28.2668 0.736761 18.5625 3.46153 11.4264 9.70602C4.27975 15.9598 0.0880237 25.6208 0.000641002 37.8954C-0.00215585 38.2553 0.0119796 38.4237 0.0119796 38.4072C0.0112993 38.4476 0.000641002 38.5977 0.000641002 38.8857C0.000605178 38.8958 0.000605178 38.9059 0.000641002 38.9159C0.0868142 51.1933 4.27865 60.8545 11.4264 67.1093C18.5625 73.3538 28.2668 76.0787 38.8444 75.9648C44.4253 76.0131 49.6346 74.6988 54.3522 72.6835C59.0691 74.6983 64.2761 76.0133 69.8561 75.9648C80.4337 76.0785 90.138 73.3518 97.2741 67.1073C104.422 60.8525 108.616 51.1913 108.702 38.914C108.702 38.9133 108.702 38.9127 108.702 38.912C108.702 38.9114 108.702 38.9107 108.702 38.91C108.702 38.9094 108.702 38.9087 108.702 38.9081C108.702 38.9074 108.702 38.9068 108.702 38.9062C108.702 38.9055 108.702 38.9049 108.702 38.9042C108.702 38.9036 108.702 38.9029 108.702 38.9023C108.702 38.9016 108.702 38.901 108.702 38.9003C108.702 38.8997 108.702 38.899 108.702 38.8983C108.702 38.8977 108.702 38.897 108.702 38.8964C108.702 38.8957 108.702 38.8951 108.702 38.8944C108.702 38.8938 108.702 38.8932 108.702 38.8925C108.702 38.8919 108.702 38.8912 108.702 38.8905C108.702 38.8898 108.702 38.8892 108.702 38.8885C108.702 38.8879 108.702 38.8873 108.702 38.8866C108.702 38.5986 108.69 38.4464 108.69 38.4061V38.3948V38.3873C108.691 38.3948 108.706 38.2383 108.702 37.897C108.616 25.6196 104.422 15.9584 97.2741 9.70366C90.361 3.6543 81.0389 0.906563 70.8463 0.844238V0.846603ZM38.7956 9.34858C38.8268 9.34892 38.8581 9.34892 38.8893 9.34858C40.6613 9.32968 42.4279 9.52963 44.1745 9.88959C38.943 13.5705 34.7923 17.5923 32.0358 20.3252C24.5711 27.726 20.7707 31.3363 16.7057 35.4013C15.9091 36.1988 15.4616 37.2799 15.4616 38.4072C15.4616 39.5344 15.9091 40.6155 16.7057 41.413C20.7702 45.4775 24.5708 49.0939 32.0358 56.495C34.7917 59.2273 38.9411 63.2458 44.1705 66.9248C42.4252 67.2842 40.6601 67.4816 38.8893 67.4638C38.8581 67.4634 38.8268 67.4634 38.7956 67.4638C29.7115 67.5696 22.2166 65.2446 17.0299 60.706C11.8433 56.1674 8.58372 49.299 8.5104 38.8525C8.51131 38.8143 8.51418 38.6884 8.51418 38.4228C8.51418 38.4221 8.51418 38.4215 8.51418 38.4208C8.51418 38.4202 8.51418 38.4195 8.51418 38.4189C8.51418 38.4182 8.51418 38.4176 8.51418 38.4169C8.51418 38.4163 8.51418 38.4156 8.51418 38.415C8.51418 38.4143 8.51418 38.4137 8.51418 38.413C8.51418 38.4124 8.51418 38.4117 8.51418 38.4111C8.51418 38.4104 8.51418 38.4098 8.51418 38.4091C8.51418 38.4085 8.51418 38.4078 8.51418 38.4072C8.51418 38.0719 8.5104 37.9331 8.5104 37.9716C8.5104 37.971 8.5104 37.9703 8.5104 37.9697C8.5104 37.969 8.5104 37.9683 8.5104 37.9677C8.5104 37.967 8.5104 37.9664 8.5104 37.9657C8.5104 37.9651 8.5104 37.9644 8.5104 37.9638C8.5104 37.9631 8.5104 37.9625 8.5104 37.9619C8.5104 37.9612 8.5104 37.9606 8.5104 37.9599C8.58372 27.5135 11.8433 20.6469 17.0299 16.1083C22.2166 11.5697 29.7115 9.24283 38.7956 9.34858V9.34858ZM69.8131 9.34858C69.8444 9.34892 69.8756 9.34892 69.9068 9.34858C78.9909 9.24275 86.4839 11.5697 91.6705 16.1083C96.8571 20.6469 100.119 27.5154 100.192 37.9619C100.192 37.9657 100.192 37.9694 100.192 37.9732C100.192 37.9339 100.188 38.0726 100.188 38.4088C100.188 38.4151 100.188 38.4213 100.188 38.4276C100.189 38.693 100.192 38.8192 100.192 38.8573C100.119 49.3038 96.8571 56.1702 91.6705 60.7089C86.4839 65.2475 78.9909 67.5745 69.9068 67.4687C69.8756 67.4683 69.8444 67.4683 69.8131 67.4687C68.0423 67.4876 66.2773 67.2869 64.5319 66.9277C69.7611 63.2488 73.9108 59.2301 76.6666 56.4979C84.1316 49.0968 87.9303 45.4804 91.9948 41.4159C92.7908 40.6185 93.2379 39.5378 93.2379 38.411C93.2379 37.2843 92.7908 36.2036 91.9948 35.4061C87.9298 31.3411 84.1313 27.7289 76.6666 20.328C73.9101 17.5951 69.7594 13.5734 64.528 9.89247C66.2745 9.53229 68.0411 9.33562 69.8131 9.35342V9.34858ZM54.3522 13.7724C61.2253 17.5148 67.1014 22.8198 70.6764 26.3642C76.6841 32.3206 79.6706 35.2031 82.9244 38.4072C79.6703 41.612 76.6842 44.4996 70.6764 50.456C67.101 54.0009 61.223 59.3029 54.3483 63.0439C47.4753 59.303 41.5988 54.0002 38.0241 50.456C32.0163 44.4996 29.0322 41.612 25.778 38.4072C29.0318 35.2031 32.0163 32.3206 38.0241 26.3642C41.5997 22.8192 47.4777 17.5149 54.3522 13.7724ZM192.073 16.4013C183.324 16.4013 172.665 20.7395 172.665 32.2821V63.749C172.665 65.4399 173.472 65.8817 174.796 65.8817H182.075C183.398 65.8817 184.208 65.4399 184.208 63.749V51.0029H200.014V63.749C200.014 65.4399 200.822 65.8817 202.145 65.8817H209.424C210.748 65.8817 211.557 65.4399 211.557 63.749V32.2821C211.557 20.7395 200.822 16.4013 192.073 16.4013ZM350.29 16.4013C341.541 16.4013 330.881 20.7395 330.881 32.2821V63.749C330.881 65.4399 331.689 65.8817 333.012 65.8817H340.292C341.615 65.8817 342.423 65.4399 342.423 63.749V50.7899H358.229V63.749C358.229 65.4399 359.039 65.8817 360.362 65.8817H367.641C368.965 65.8817 369.772 65.4399 369.772 63.749V32.2821C369.772 20.7395 359.039 16.4013 350.29 16.4013V16.4013ZM124.255 17.4306C122.564 17.4306 122.124 18.2401 122.124 19.5634V63.749C122.124 65.4399 122.931 65.8798 124.255 65.8798H131.534C132.857 65.8798 133.667 65.4399 133.667 63.749V38.8252L141.092 51.6903C141.46 52.2785 142.048 53.2353 143.151 53.2353H146.827C147.93 53.2353 148.59 52.2785 148.958 51.6903L156.311 38.8252V63.749C156.311 65.4399 157.119 65.8798 158.442 65.8798H165.501C166.824 65.8798 167.631 65.4399 167.631 63.749V19.5634C167.631 18.2401 167.192 17.4306 165.501 17.4306H158.442C156.016 17.4306 155.648 19.0483 155.133 19.9306L144.989 38.0166L134.917 19.9306C134.328 19.0483 134.034 17.4306 131.534 17.4306H124.255ZM218.618 17.5047C216.927 17.5047 216.485 18.3122 216.485 19.6355V63.7488C216.485 65.4398 217.294 65.8797 218.618 65.8797H225.895C227.219 65.8797 228.028 65.4398 228.028 63.7488V51.5437H235.085C247.657 51.5437 254.421 44.7806 254.421 34.5613C254.421 24.4155 247.804 17.5047 235.159 17.5047H218.618ZM261.044 17.5047C259.353 17.5047 258.911 18.3121 258.911 19.6355V63.7488C258.911 65.0722 259.353 65.8797 261.044 65.8797H293.979C295.67 65.8797 296.112 65.0722 296.112 63.7488V57.7195C296.112 56.3962 295.67 55.5867 293.979 55.5867H270.526V45.8836H290.231C291.922 45.8836 292.362 45.0741 292.362 43.7508V38.0164C292.362 36.693 291.922 35.8836 290.231 35.8836H270.526V27.8699H292.729C294.42 27.8699 294.862 27.0624 294.862 25.739V19.6357C294.862 18.3123 294.42 17.5048 292.729 17.5048L261.044 17.5047ZM303.051 17.5047C301.36 17.5047 300.921 18.3122 300.921 19.6355V25.5906C300.921 26.9139 301.36 27.7234 303.051 27.7234H307.536V55.8074H302.905C301.214 55.8074 300.772 56.6168 300.772 57.9402V63.7488C300.772 65.0722 301.214 65.8797 302.905 65.8797H323.712C325.403 65.8797 325.842 65.0722 325.842 63.7488V57.9402C325.842 56.6168 325.403 55.8074 323.712 55.8074H319.079V27.7234H323.491C325.182 27.7234 325.622 26.914 325.622 25.5906V19.6357C325.622 18.3123 325.182 17.5048 323.491 17.5048L303.051 17.5047ZM54.3502 25.9109C52.7092 25.9108 51.0842 26.234 49.5681 26.862C48.052 27.49 46.6744 28.4104 45.514 29.5708C44.3537 30.7312 43.4332 32.1088 42.8052 33.6249C42.1773 35.141 41.8541 36.766 41.8541 38.407C41.8541 40.048 42.1773 41.673 42.8052 43.1891C43.4332 44.7052 44.3537 46.0828 45.514 47.2432C46.6744 48.4036 48.052 49.3241 49.5681 49.952C51.0842 50.58 52.7092 50.9032 54.3502 50.9031C55.9913 50.9032 57.6162 50.58 59.1323 49.952C60.6485 49.3241 62.026 48.4036 63.1864 47.2432C64.3468 46.0828 65.2673 44.7052 65.8952 43.1891C66.5232 41.673 66.8464 40.048 66.8463 38.407C66.8464 36.766 66.5232 35.141 65.8952 33.6249C65.2673 32.1088 64.3468 30.7312 63.1864 29.5708C62.026 28.4104 60.6485 27.49 59.1323 26.862C57.6162 26.234 55.9913 25.9108 54.3502 25.9109ZM192.073 26.6199C196.925 26.6199 200.014 29.2674 200.014 33.8992V41.0047H184.208V33.8992C184.208 29.2674 187.221 26.6199 192.073 26.6199ZM350.29 26.6199C355.142 26.6199 358.229 29.2674 358.229 33.8992V40.7898H342.423V33.8992C342.423 29.2674 345.437 26.6199 350.29 26.6199ZM228.028 27.8699H235.085C240.819 27.8699 243.319 30.959 243.319 34.782C243.319 38.458 240.819 41.6179 235.085 41.6179H228.028V27.8699ZM360.467 74.4168C359.882 74.4168 359.371 74.6156 358.936 75.0125C358.52 75.3905 358.313 75.9012 358.313 76.5437C358.313 77.1862 358.521 77.7055 358.936 78.1023C359.371 78.4803 359.882 78.6687 360.467 78.6687C361.091 78.6687 361.602 78.4801 361.999 78.1023C362.414 77.7055 362.622 77.1862 362.622 76.5437C362.622 75.9012 362.415 75.3904 361.999 75.0125C361.602 74.6157 361.091 74.4168 360.467 74.4168ZM242.331 74.616V82.2116H241.848C241.64 81.8337 241.347 81.4841 240.969 81.1628C240.61 80.8416 240.129 80.5777 239.524 80.3699C238.919 80.162 238.182 80.0573 237.313 80.0573C236.16 80.0573 235.093 80.3419 234.11 80.9088C233.146 81.4568 232.372 82.2692 231.786 83.3464C231.2 84.4235 230.907 85.7174 230.907 87.2292V87.6823C230.907 89.194 231.2 90.4899 231.786 91.567C232.372 92.6442 233.155 93.465 234.137 94.0319C235.12 94.5799 236.179 94.8542 237.313 94.8542C238.636 94.8542 239.647 94.6281 240.346 94.1744C241.046 93.702 241.565 93.1808 241.905 92.6139H242.387V94.4577H245.561V74.6158L242.331 74.616ZM298.907 74.616V94.4577H302.11V92.614H302.592C302.914 93.1809 303.424 93.7021 304.124 94.1746C304.842 94.6281 305.861 94.8543 307.184 94.8543C308.318 94.8543 309.367 94.5799 310.331 94.032C311.313 93.4651 312.098 92.6443 312.684 91.5671C313.27 90.49 313.561 89.1941 313.561 87.6824V87.2292C313.561 85.7175 313.27 84.4236 312.684 83.3464C312.098 82.2693 311.322 81.4569 310.358 80.9089C309.394 80.342 308.337 80.0574 307.184 80.0574C306.296 80.0574 305.551 80.162 304.946 80.3699C304.36 80.5778 303.877 80.8416 303.499 81.1629C303.14 81.4841 302.857 81.8338 302.649 82.2117H302.167V74.616L298.907 74.616ZM366.251 74.616V94.4577H369.51V74.616H366.251ZM152.645 80.0574C151.436 80.0574 150.414 80.2479 149.583 80.6257C148.751 80.9848 148.081 81.4663 147.571 82.071C147.08 82.6758 146.72 83.3458 146.493 84.0828L149.499 85.0749C149.65 84.3757 149.962 83.8084 150.434 83.3738C150.926 82.9202 151.644 82.6941 152.589 82.6941C153.552 82.6941 154.26 82.9307 154.714 83.4031C155.167 83.8566 155.393 84.4512 155.393 85.1882V86.0398H151.34C150.301 86.0398 149.376 86.2095 148.563 86.5495C147.751 86.8708 147.108 87.3524 146.635 87.9949C146.182 88.6374 145.956 89.4309 145.956 90.3757C145.956 91.3395 146.182 92.1518 146.635 92.8132C147.108 93.4746 147.74 93.9854 148.534 94.3445C149.327 94.6846 150.217 94.8543 151.2 94.8543C152.183 94.8543 152.957 94.7223 153.524 94.4577C154.11 94.1743 154.543 93.8435 154.827 93.4656C155.11 93.0876 155.309 92.7653 155.423 92.5007H155.905V92.5574C155.905 93.1432 156.121 93.6079 156.555 93.948C156.99 94.2882 157.549 94.4578 158.229 94.4578H160.524V91.7644H159.335C158.805 91.7644 158.54 91.4817 158.54 90.9148V85.4148C158.54 83.6763 158.012 82.3531 156.954 81.4461C155.914 80.5201 154.478 80.0574 152.645 80.0574V80.0574ZM171.495 80.0574C170.172 80.0574 169.15 80.2853 168.432 80.739C167.733 81.1925 167.224 81.7118 166.903 82.2976H166.421V80.4538H163.217V100.126H166.477V92.6999H166.96C167.167 93.0401 167.45 93.3813 167.809 93.7214C168.187 94.0616 168.669 94.3339 169.255 94.5417C169.859 94.7496 170.607 94.8543 171.495 94.8543C172.647 94.8543 173.705 94.5799 174.669 94.032C175.632 93.4651 176.407 92.6443 176.993 91.5671C177.579 90.49 177.872 89.1942 177.872 87.6824V87.2293C177.872 85.7175 177.579 84.4236 176.993 83.3465C176.407 82.2694 175.624 81.457 174.641 80.909C173.677 80.342 172.629 80.0574 171.495 80.0574V80.0574ZM187.651 80.0574C186.272 80.0574 185.053 80.3609 183.995 80.9655C182.937 81.5514 182.114 82.3826 181.528 83.4597C180.942 84.5368 180.649 85.8119 180.649 87.2859V87.6256C180.649 89.0807 180.942 90.3558 181.528 91.4518C182.133 92.5289 182.964 93.3706 184.022 93.9753C185.099 94.5611 186.339 94.8542 187.737 94.8542C189.003 94.8542 190.052 94.6554 190.883 94.2585C191.715 93.8427 192.377 93.3527 192.868 92.7858C193.378 92.2 193.765 91.6515 194.03 91.1413L191.337 89.7526C191.072 90.3384 190.685 90.8661 190.174 91.3385C189.664 91.7921 188.879 92.0201 187.821 92.0201C186.744 92.0201 185.837 91.6895 185.1 91.028C184.363 90.3666 183.976 89.4873 183.938 88.3913H194.454V87.2292C194.454 85.793 194.171 84.5368 193.604 83.4596C193.037 82.3825 192.244 81.5513 191.223 80.9655C190.203 80.3608 189.012 80.0573 187.651 80.0573V80.0574ZM203.581 80.0574C202.371 80.0574 201.352 80.2479 200.52 80.6257C199.689 80.9848 199.019 81.4663 198.508 82.071C198.017 82.6758 197.657 83.3458 197.43 84.0828L200.434 85.0749C200.585 84.3757 200.897 83.8084 201.37 83.3738C201.861 82.9202 202.579 82.6941 203.524 82.6941C204.488 82.6941 205.198 82.9307 205.651 83.4031C206.105 83.8566 206.331 84.4512 206.331 85.1882V86.0398H202.278C201.239 86.0398 200.313 86.2095 199.501 86.5495C198.688 86.8708 198.045 87.3524 197.573 87.9949C197.119 88.6374 196.891 89.4309 196.891 90.3757C196.891 91.3395 197.119 92.1518 197.573 92.8132C198.045 93.4746 198.678 93.9854 199.471 94.3445C200.265 94.6846 201.153 94.8543 202.135 94.8543C203.118 94.8543 203.893 94.7223 204.46 94.4577C205.045 94.1743 205.481 93.8435 205.764 93.4656C206.048 93.0876 206.247 92.7653 206.36 92.5007H206.84V92.5574C206.84 93.1432 207.058 93.6079 207.493 93.948C207.927 94.2882 208.484 94.4578 209.165 94.4578H211.462V91.7644H210.27C209.741 91.7644 209.477 91.4817 209.477 90.9148V85.4148C209.477 83.6763 208.948 82.3531 207.889 81.4461C206.85 80.5201 205.414 80.0574 203.581 80.0574V80.0574ZM256.333 80.0574C254.934 80.0574 253.678 80.3419 252.563 80.9089C251.467 81.4758 250.598 82.2966 249.956 83.3738C249.332 84.4509 249.02 85.7364 249.02 87.2292V87.6824C249.02 89.1752 249.332 90.4607 249.956 91.5378C250.598 92.5961 251.467 93.4188 252.563 94.0046C253.678 94.5715 254.934 94.8543 256.333 94.8543C257.731 94.8543 258.979 94.5715 260.075 94.0046C261.171 93.4188 262.029 92.5961 262.653 91.5378C263.295 90.4607 263.618 89.1752 263.618 87.6824V87.2292C263.618 85.7364 263.295 84.4509 262.653 83.3738C262.029 82.2966 261.171 81.4758 260.075 80.9089C258.979 80.342 257.731 80.0574 256.333 80.0574ZM280.936 80.0574C279.538 80.0574 278.282 80.3419 277.167 80.9089C276.071 81.4758 275.202 82.2966 274.559 83.3738C273.936 84.4509 273.624 85.7364 273.624 87.2292V87.6824C273.624 89.1752 273.935 90.4607 274.559 91.5378C275.202 92.5961 276.071 93.4188 277.167 94.0046C278.282 94.5715 279.538 94.8543 280.936 94.8543C282.335 94.8543 283.582 94.5715 284.678 94.0046C285.774 93.4188 286.633 92.5961 287.256 91.5378C287.899 90.4607 288.221 89.1752 288.221 87.6824V87.2292C288.221 85.7364 287.899 84.4509 287.256 83.3738C286.633 82.2966 285.774 81.4758 284.678 80.9089C283.582 80.342 282.335 80.0574 280.936 80.0574ZM333.51 80.0574C332.301 80.0574 331.281 80.2479 330.45 80.6257C329.618 80.9848 328.946 81.4663 328.436 82.071C327.945 82.6758 327.587 83.3458 327.36 84.0828L330.364 85.0749C330.515 84.3757 330.827 83.8084 331.299 83.3738C331.791 82.9202 332.509 82.6941 333.454 82.6941C334.417 82.6941 335.127 82.9307 335.581 83.4031C336.034 83.8566 336.26 84.4512 336.26 85.1882V86.0398H332.208C331.168 86.0398 330.241 86.2095 329.428 86.5495C328.616 86.8708 327.975 87.3524 327.503 87.9949C327.049 88.6374 326.821 89.4309 326.821 90.3757C326.821 91.3395 327.049 92.1518 327.503 92.8132C327.975 93.4746 328.607 93.9854 329.401 94.3445C330.195 94.6846 331.082 94.8543 332.065 94.8543C333.048 94.8543 333.822 94.7223 334.389 94.4577C334.975 94.1743 335.411 93.8435 335.694 93.4656C335.977 93.0876 336.176 92.7653 336.29 92.5007H336.77V92.5574C336.77 93.1432 336.988 93.6079 337.422 93.948C337.857 94.2882 338.414 94.4578 339.094 94.4578H341.391V91.7644H340.2C339.671 91.7644 339.407 91.4817 339.407 90.9148V85.4148C339.407 83.6763 338.877 82.3531 337.819 81.4461C336.78 80.5201 335.343 80.0574 333.51 80.0574V80.0574ZM349.186 80.0574C347.542 80.0574 346.211 80.4259 345.19 81.1628C344.189 81.8998 343.686 82.9487 343.686 84.3093C343.686 85.1975 343.923 85.9344 344.395 86.5202C344.886 87.0872 345.529 87.5415 346.323 87.8816C347.117 88.2029 347.996 88.4582 348.96 88.6472L349.839 88.7878C350.708 88.9579 351.35 89.1671 351.766 89.4128C352.201 89.6585 352.417 90.0354 352.417 90.5456C352.417 91.037 352.191 91.4431 351.737 91.7643C351.302 92.0856 350.641 92.2467 349.753 92.2467C349.167 92.2467 348.618 92.161 348.108 91.9909C347.617 91.8208 347.202 91.5277 346.862 91.1119C346.522 90.6962 346.285 90.1308 346.153 89.4127L343.149 90.1764C343.395 91.7071 344.102 92.869 345.274 93.6627C346.446 94.4564 347.938 94.8542 349.753 94.8542C351.529 94.8542 352.938 94.4668 353.977 93.692C355.035 92.8984 355.563 91.7741 355.563 90.319C355.563 89.3553 355.318 88.589 354.827 88.0221C354.335 87.4552 353.665 87.0217 352.815 86.7194C351.984 86.417 351.048 86.1701 350.008 85.9811L349.13 85.811C348.43 85.6976 347.873 85.5196 347.458 85.2739C347.042 85.0282 346.833 84.6597 346.833 84.1684C346.833 83.6771 347.031 83.2982 347.428 83.0337C347.844 82.7691 348.43 82.6371 349.186 82.6371C349.923 82.6371 350.547 82.8069 351.057 83.1469C351.568 83.4682 351.898 84.0252 352.049 84.8188L355.053 83.9126C354.751 82.741 354.089 81.8051 353.069 81.1059C352.049 80.4067 350.755 80.0571 349.186 80.0571V80.0574ZM129.854 80.1998C128.89 80.1998 128.116 80.3884 127.53 80.7663C126.963 81.1253 126.557 81.5419 126.311 82.0143H125.829V80.4538H122.626V94.4577H125.887V86.153C125.887 85.1137 126.132 84.3182 126.624 83.7702C127.115 83.2033 127.795 82.9205 128.665 82.9205C129.439 82.9205 130.044 83.1382 130.479 83.5729C130.914 83.9886 131.13 84.6021 131.13 85.4147V94.4577H134.362V86.153C134.362 85.1137 134.607 84.3182 135.098 83.7702C135.608 83.2033 136.289 82.9205 137.139 82.9205C137.914 82.9205 138.519 83.1382 138.954 83.5729C139.388 83.9886 139.606 84.6021 139.606 85.4147V94.4577H142.866V85.1882C142.866 84.0921 142.648 83.1751 142.214 82.4381C141.798 81.7011 141.23 81.1442 140.512 80.7663C139.813 80.3883 139.03 80.1998 138.161 80.1998C137.046 80.1998 136.185 80.4074 135.581 80.8229C134.976 81.2387 134.513 81.7683 134.192 82.4108H133.739C133.418 81.7683 132.945 81.2387 132.321 80.8229C131.697 80.4072 130.875 80.1998 129.854 80.1998V80.1998ZM222.09 80.1998C220.787 80.1998 219.813 80.4364 219.171 80.9088C218.528 81.3812 218.084 81.8816 217.839 82.4108H217.358V80.4538H214.155V94.4577H217.415V87.3717C217.415 85.9545 217.745 84.8678 218.407 84.112C219.068 83.3372 219.975 82.9499 221.128 82.9499C222.148 82.9499 222.931 83.2326 223.479 83.7995C224.046 84.3475 224.331 85.1891 224.331 86.3229V94.4577H227.59V86.0671C227.59 84.8765 227.354 83.8465 226.881 82.9772C226.428 82.108 225.785 81.4275 224.954 80.9362C224.122 80.4449 223.168 80.1998 222.09 80.1998V80.1998ZM323.51 80.3971C322.83 80.3971 322.246 80.5309 321.755 80.7956C321.263 81.0601 320.914 81.4852 320.706 82.071H320.223V80.4538H317.02V94.4577H320.28V86.3503C320.28 85.3109 320.573 84.5467 321.159 84.0554C321.745 83.5451 322.509 83.2897 323.454 83.2897H325.212V80.3971H323.51ZM358.852 80.4538V94.4577H362.112V80.4538H358.852ZM170.53 82.8933C171.702 82.8933 172.675 83.2701 173.45 84.0261C174.225 84.782 174.612 85.879 174.612 87.3152V87.5982C174.612 89.0155 174.225 90.1106 173.45 90.8854C172.694 91.6412 171.72 92.0201 170.53 92.0201C169.358 92.0201 168.376 91.6412 167.583 90.8854C166.808 90.1106 166.421 89.0155 166.421 87.5982V87.3152C166.421 85.879 166.808 84.782 167.583 84.0261C168.376 83.2702 169.358 82.8933 170.53 82.8933ZM187.624 82.8933C188.625 82.8933 189.438 83.1658 190.061 83.7136C190.704 84.2616 191.062 84.9986 191.137 85.9246H183.965C184.117 84.9986 184.504 84.2616 185.128 83.7136C185.751 83.1656 186.584 82.8933 187.624 82.8933ZM238.276 82.8933C239.467 82.8933 240.44 83.2701 241.196 84.0261C241.971 84.782 242.358 85.879 242.358 87.3152V87.5982C242.358 89.0155 241.971 90.1106 241.196 90.8854C240.421 91.6412 239.448 92.0201 238.276 92.0201C237.104 92.0201 236.122 91.6412 235.329 90.8854C234.554 90.1106 234.167 89.0155 234.167 87.5982V87.3152C234.167 85.879 234.554 84.782 235.329 84.0261C236.122 83.2702 237.104 82.8933 238.276 82.8933V82.8933ZM306.221 82.8933C307.412 82.8933 308.383 83.2701 309.139 84.0261C309.914 84.782 310.301 85.879 310.301 87.3152V87.5982C310.301 89.0155 309.914 90.1106 309.139 90.8854C308.364 91.6412 307.393 92.0201 306.221 92.0201C305.05 92.0201 304.066 91.6412 303.272 90.8854C302.497 90.1106 302.11 89.0155 302.11 87.5982V87.3152C302.11 85.879 302.497 84.782 303.272 84.0261C304.066 83.2702 305.05 82.8933 306.221 82.8933ZM256.333 82.95C257.523 82.95 258.497 83.3373 259.253 84.1121C260.008 84.8679 260.385 85.9357 260.385 87.3152V87.5983C260.385 88.9777 260.009 90.054 259.253 90.8287C258.497 91.5846 257.523 91.9635 256.333 91.9635C255.142 91.9635 254.169 91.5846 253.413 90.8287C252.657 90.054 252.28 88.9777 252.28 87.5983V87.3152C252.28 85.9357 252.657 84.8679 253.413 84.1121C254.169 83.3373 255.142 82.95 256.333 82.95ZM280.936 82.95C282.127 82.95 283.1 83.3373 283.856 84.1121C284.612 84.8679 284.989 85.9357 284.989 87.3152V87.5983C284.989 88.9777 284.612 90.054 283.856 90.8287C283.1 91.5846 282.127 91.9635 280.936 91.9635C279.746 91.9635 278.772 91.5846 278.016 90.8287C277.26 90.054 276.883 88.9777 276.883 87.5983V87.3152C276.883 85.9357 277.26 84.8679 278.016 84.1121C278.772 83.3373 279.746 82.95 280.936 82.95ZM151.54 88.5047H155.393V88.7877C155.393 89.827 155.054 90.6583 154.374 91.2819C153.693 91.8866 152.814 92.1901 151.737 92.1901C150.943 92.1901 150.319 92.0204 149.866 91.6803C149.412 91.3212 149.186 90.8566 149.186 90.2897C149.186 89.7039 149.404 89.26 149.839 88.9576C150.273 88.6553 150.84 88.5046 151.54 88.5046V88.5047ZM202.475 88.5047H206.331V88.7877C206.331 89.827 205.991 90.6583 205.311 91.2819C204.631 91.8866 203.752 92.1901 202.674 92.1901C201.881 92.1901 201.257 92.0204 200.803 91.6803C200.35 91.3212 200.124 90.8566 200.124 90.2897C200.124 89.7039 200.341 89.26 200.776 88.9576C201.211 88.6553 201.776 88.5046 202.475 88.5046V88.5047ZM332.405 88.5047H336.26V88.7877C336.26 89.827 335.921 90.6583 335.241 91.2819C334.561 91.8866 333.681 92.1901 332.604 92.1901C331.81 92.1901 331.187 92.0204 330.733 91.6803C330.28 91.3212 330.053 90.8566 330.053 90.2897C330.053 89.7039 330.269 89.26 330.704 88.9576C331.138 88.6553 331.706 88.5046 332.405 88.5046V88.5047Z" fill="#F9F9F9"/>
</svg>
