<svg width="370" height="100" viewBox="0 0 370 100" fill="none" xmlns="http://www.w3.org/2000/svg">
<path d="M192.074 15.5562C183.325 15.5562 172.665 19.8935 172.665 31.4361V62.9031C172.665 64.594 173.473 65.0356 174.796 65.0356H182.076C183.399 65.0356 184.208 64.594 184.208 62.9031V50.1564H200.015V62.9031C200.015 64.594 200.823 65.0356 202.146 65.0356H209.425C210.749 65.0356 211.557 64.594 211.557 62.9031V31.4361C211.557 19.8935 200.823 15.5562 192.074 15.5562ZM192.074 25.7752C196.926 25.7752 200.015 28.4214 200.015 33.0532V40.1585H184.208V33.0532C184.208 28.4214 187.221 25.7752 192.074 25.7752Z" fill="#230065"/>
<path d="M165.5 16.5852H158.443C156.016 16.5852 155.649 18.2026 155.134 19.0849L144.988 37.1708L134.916 19.0849C134.328 18.2026 134.034 16.5852 131.534 16.5852H124.256C122.565 16.5852 122.124 17.3939 122.124 18.7172V62.9029C122.124 64.5939 122.932 65.035 124.256 65.035H131.534C132.858 65.035 133.666 64.5939 133.666 62.9029V37.9795L141.092 50.8456C141.46 51.4337 142.048 52.3895 143.15 52.3895H146.826C147.929 52.3895 148.591 51.4337 148.958 50.8456L156.31 37.9795V62.9029C156.31 64.5939 157.119 65.035 158.443 65.035H165.5C166.824 65.035 167.633 64.5939 167.633 62.9029V18.7172C167.633 17.3939 167.191 16.5852 165.5 16.5852V16.5852Z" fill="#230065"/>
<path d="M235.159 16.6587H218.617C216.926 16.6587 216.485 17.4674 216.485 18.7908V62.9029C216.485 64.5939 217.294 65.035 218.617 65.035H225.896C227.219 65.035 228.028 64.5939 228.028 62.9029V50.6986H235.086C247.658 50.6986 254.422 43.9347 254.422 33.7154C254.422 23.5695 247.805 16.6587 235.159 16.6587V16.6587ZM235.086 40.7733H228.028V27.0251H235.086C240.82 27.0251 243.32 30.1129 243.32 33.936C243.32 37.6119 240.82 40.7733 235.086 40.7733Z" fill="#230065"/>
<path d="M293.98 54.7422H270.527V45.0374H290.23C291.921 45.0374 292.363 44.2288 292.363 42.9054V37.1708C292.363 35.8474 291.921 35.0387 290.23 35.0387H270.527V27.025H292.73C294.421 27.025 294.862 26.2163 294.862 24.893V18.7908C294.862 17.4674 294.421 16.6587 292.73 16.6587H261.043C259.352 16.6587 258.911 17.4674 258.911 18.7908V62.9029C258.911 64.2263 259.352 65.035 261.043 65.035H293.98C295.671 65.035 296.112 64.2263 296.112 62.9029V56.8742C296.112 55.5509 295.671 54.7421 293.98 54.7422V54.7422Z" fill="#230065"/>
<path d="M323.711 54.9628H319.079V26.878H323.491C325.182 26.878 325.623 26.0693 325.623 24.7459V18.7908C325.623 17.4674 325.182 16.6587 323.491 16.6587H303.052C301.361 16.6587 300.92 17.4674 300.92 18.7908V24.7459C300.92 26.0692 301.361 26.878 303.052 26.878H307.537V54.9628H302.905C301.214 54.9628 300.773 55.7715 300.773 57.0948V62.9029C300.773 64.2263 301.214 65.035 302.905 65.035H323.711C325.402 65.035 325.843 64.2263 325.843 62.9029V57.0948C325.843 55.7715 325.402 54.9628 323.711 54.9628V54.9628Z" fill="#230065"/>
<path d="M350.289 15.5562C341.54 15.5562 330.881 19.8935 330.881 31.4361V62.9031C330.881 64.594 331.689 65.0356 333.012 65.0356H340.291C341.615 65.0356 342.423 64.594 342.423 62.9031V49.9445H358.229V62.9031C358.229 64.594 359.038 65.0356 360.362 65.0356H367.641C368.965 65.0356 369.772 64.594 369.772 62.9031V31.4361C369.772 19.8935 359.038 15.5562 350.289 15.5562V15.5562ZM350.289 25.7752C355.142 25.7752 358.229 28.4214 358.229 33.0532V39.9453H342.423V33.0532C342.423 28.4214 345.437 25.7752 350.289 25.7752Z" fill="#230065"/>
<path fill-rule="evenodd" clip-rule="evenodd" d="M54.3503 8.04774C45.9107 12.1224 39.0227 18.5394 35.0314 22.4965C27.5458 29.9181 23.7331 33.5444 19.7148 37.5627C23.7331 41.581 27.5458 45.2073 35.0314 52.6289C39.0227 56.586 45.9107 63.0035 54.3503 67.0777C62.7904 63.0036 69.6792 56.5862 73.6705 52.6289C81.1563 45.2073 84.969 41.581 88.9873 37.5627C84.969 33.5444 81.1563 29.9181 73.6705 22.4965C69.6792 18.5392 62.7904 12.1224 54.3503 8.04774V8.04774Z" fill="#00E77D"/>
<path d="M41.8545 37.5617C41.8545 30.6605 47.449 25.066 54.3502 25.066C61.2514 25.066 66.8459 30.6605 66.8459 37.5617C66.8459 44.4629 61.2514 50.0574 54.3502 50.0574C47.449 50.0574 41.8545 44.4629 41.8545 37.5617Z" fill="#230065"/>
<path fill-rule="evenodd" clip-rule="evenodd" d="M38.845 0.00472397C28.2674 -0.109153 18.5636 2.61686 11.4275 8.86133C4.28083 15.1151 0.0877205 24.7748 0.000375648 37.0494C-0.002459 37.4093 0.0116792 37.5779 0.0116792 37.5614C0.0110366 37.6016 0.000375648 37.7521 0.000375648 38.0402C0.000344162 38.0497 0.000344162 38.0591 0.000375648 38.0686C0.0865489 50.346 4.27974 60.0074 11.4275 66.2622C18.5636 72.5067 28.2674 75.2328 38.845 75.1188C56.3836 75.2713 70.2694 61.9914 76.6659 55.6497C84.1309 48.2486 87.9312 44.6321 91.9957 40.5676C92.792 39.7701 93.2393 38.6892 93.2393 37.5622C93.2393 36.4352 92.792 35.3542 91.9957 34.5567C87.9307 30.4917 84.1306 26.881 76.6659 19.4801C70.2697 13.1387 56.384 -0.146958 38.845 0.00553857V0.00472397ZM38.7955 8.50353C38.8266 8.50387 38.8577 8.50387 38.8889 8.50353C51.8657 8.37332 64.5976 19.4904 70.6769 25.5177C76.6846 31.4741 79.6703 34.3573 82.9242 37.5614C79.67 40.7662 76.6847 43.6541 70.6769 49.6105C64.5979 55.6375 51.8661 66.7495 38.8889 66.6192C38.8577 66.6188 38.8266 66.6188 38.7955 66.6192C29.7114 66.7252 22.2176 64.3984 17.031 59.8598C11.8444 55.3211 8.5835 48.4537 8.51014 38.0072C8.51104 37.9691 8.51394 37.8435 8.51394 37.5779C8.51396 37.5722 8.51396 37.5665 8.51394 37.5609C8.51394 37.2255 8.51014 37.0875 8.51014 37.126C8.51014 37.1222 8.51014 37.1184 8.51014 37.1147C8.58346 26.6682 11.8444 19.8007 17.031 15.2621C22.2177 10.7235 29.7114 8.39695 38.7955 8.50269V8.50353Z" fill="#230065"/>
<path fill-rule="evenodd" clip-rule="evenodd" d="M69.8569 0.00472131C52.318 -0.147745 38.4323 13.1379 32.0361 19.4793C24.5714 26.8802 20.7712 30.4909 16.7063 34.5559C15.9099 35.3534 15.4627 36.4343 15.4627 37.5614C15.4627 38.6884 15.9099 39.7693 16.7063 40.5668C20.7708 44.6312 24.5711 48.2478 32.0361 55.6489C38.4326 61.9906 52.3184 75.2705 69.8569 75.118C80.4346 75.2318 90.1383 72.5059 97.2744 66.2614C104.422 60.0066 108.615 50.3452 108.702 38.0678C108.702 38.0583 108.702 38.0489 108.702 38.0394C108.702 37.7515 108.69 37.6008 108.69 37.5605V37.5492C108.69 37.5488 108.69 37.5435 108.69 37.5435C108.691 37.5492 108.705 37.395 108.702 37.0536C108.616 24.7762 104.422 15.1148 97.2744 8.86003C90.1383 2.61555 80.4346 -0.110412 69.8569 0.00341651V0.00472131ZM69.8131 8.50353C69.8444 8.50387 69.8756 8.50387 69.9068 8.50353C78.9909 8.39785 86.4846 10.7243 91.6713 15.263C96.8579 19.8016 100.119 26.669 100.192 37.1155C100.192 37.1193 100.192 37.1231 100.192 37.1268C100.192 37.0874 100.188 37.2258 100.188 37.5617C100.188 37.5674 100.188 37.573 100.188 37.5787C100.189 37.8442 100.192 37.9699 100.192 38.008C100.119 48.4545 96.8579 55.3219 91.6713 59.8606C86.4846 64.3992 78.9909 66.7259 69.9068 66.62C69.8756 66.6197 69.8444 66.6197 69.8131 66.62C56.8359 66.7502 44.1041 55.6383 38.0251 49.6114C32.0173 43.655 29.0319 40.767 25.7777 37.5622C29.0316 34.3581 32.0173 31.4749 38.0251 25.5185C44.1044 19.4912 56.8363 8.37408 69.8131 8.50437V8.50353Z" fill="#230065"/>
<path d="M122.627 93.6121V79.6094H125.83V81.1684H126.312C126.557 80.696 126.964 80.2803 127.531 79.9212C128.116 79.5433 128.891 79.3543 129.855 79.3543C130.875 79.3543 131.697 79.5622 132.321 79.9779C132.945 80.3936 133.417 80.9228 133.738 81.5653H134.192C134.513 80.9228 134.976 80.3936 135.581 79.9779C136.185 79.5622 137.045 79.3543 138.16 79.3543C139.029 79.3543 139.814 79.5433 140.513 79.9212C141.231 80.2992 141.798 80.8566 142.214 81.5936C142.648 82.3306 142.866 83.2471 142.866 84.3431V93.6121H139.606V84.5699C139.606 83.7573 139.388 83.1432 138.954 82.7274C138.519 82.2928 137.915 82.0755 137.14 82.0755C136.289 82.0755 135.609 82.3589 135.099 82.9258C134.608 83.4739 134.362 84.2675 134.362 85.3069V93.6121H131.131V84.5699C131.131 83.7573 130.913 83.1432 130.479 82.7274C130.044 82.2928 129.439 82.0755 128.664 82.0755C127.795 82.0755 127.115 82.3589 126.624 82.9258C126.132 83.4739 125.887 84.2675 125.887 85.3069V93.6121H122.627Z" fill="#230065"/>
<path d="M151.199 94.009C150.216 94.009 149.328 93.8389 148.535 93.4987C147.741 93.1397 147.108 92.6295 146.636 91.9681C146.182 91.3067 145.955 90.4941 145.955 89.5304C145.955 88.5855 146.182 87.7918 146.636 87.1493C147.108 86.5068 147.75 86.025 148.563 85.7037C149.376 85.3636 150.301 85.1935 151.341 85.1935H155.394V84.3431C155.394 83.6061 155.167 83.0109 154.714 82.5574C154.26 82.0849 153.552 81.8487 152.588 81.8487C151.643 81.8487 150.925 82.0755 150.434 82.529C149.961 82.9636 149.65 83.5306 149.498 84.2297L146.494 83.2377C146.721 82.5007 147.08 81.8298 147.571 81.2251C148.081 80.6204 148.752 80.1385 149.583 79.7795C150.415 79.4016 151.435 79.2126 152.645 79.2126C154.478 79.2126 155.914 79.6756 156.953 80.6015C158.012 81.5086 158.541 82.8314 158.541 84.5699V90.0689C158.541 90.6358 158.805 90.9193 159.334 90.9193H160.525V93.6121H158.229C157.549 93.6121 156.991 93.442 156.556 93.1019C156.122 92.7618 155.905 92.2988 155.905 91.713V91.6563H155.423C155.309 91.9208 155.111 92.2421 154.827 92.62C154.544 92.998 154.109 93.3287 153.523 93.6121C152.957 93.8767 152.182 94.009 151.199 94.009V94.009ZM151.738 91.3445C152.815 91.3445 153.694 91.0421 154.374 90.4374C155.054 89.8138 155.394 88.9823 155.394 87.943V87.6596H151.539C150.84 87.6596 150.273 87.8107 149.839 88.1131C149.404 88.4154 149.187 88.8595 149.187 89.4453C149.187 90.0122 149.413 90.4752 149.867 90.8342C150.32 91.1744 150.944 91.3445 151.738 91.3445V91.3445Z" fill="#230065"/>
<path d="M163.218 99.2812V79.6094H166.421V81.4519H166.903C167.224 80.8661 167.734 80.3464 168.433 79.8929C169.151 79.4393 170.172 79.2126 171.495 79.2126C172.628 79.2126 173.677 79.496 174.641 80.0629C175.624 80.611 176.408 81.4235 176.994 82.5007C177.579 83.5778 177.872 84.8722 177.872 86.384V86.8375C177.872 88.3493 177.579 89.6437 176.994 90.7209C176.408 91.798 175.633 92.62 174.669 93.1869C173.705 93.7349 172.647 94.009 171.495 94.009C170.606 94.009 169.86 93.905 169.255 93.6972C168.669 93.4893 168.188 93.2153 167.81 92.8752C167.451 92.535 167.167 92.1949 166.959 91.8547H166.477V99.2813L163.218 99.2812ZM170.531 91.1744C171.721 91.1744 172.695 90.7965 173.45 90.0406C174.225 89.2658 174.613 88.1698 174.613 86.7525V86.469C174.613 85.0329 174.225 83.9368 173.45 83.181C172.676 82.4251 171.702 82.0471 170.531 82.0471C169.359 82.0471 168.377 82.4251 167.583 83.181C166.808 83.9368 166.421 85.0329 166.421 86.469V86.7525C166.421 88.1698 166.808 89.2658 167.583 90.0406C168.377 90.7965 169.359 91.1744 170.531 91.1744Z" fill="#230065"/>
<path d="M187.737 94.009C186.338 94.009 185.1 93.7161 184.023 93.1302C182.965 92.5255 182.134 91.6846 181.529 90.6075C180.943 89.5115 180.65 88.2359 180.65 86.7809V86.4407C180.65 84.9667 180.943 83.6912 181.529 82.6141C182.115 81.5369 182.937 80.7054 183.995 80.1196C185.053 79.5149 186.272 79.2126 187.651 79.2126C189.012 79.2126 190.203 79.5149 191.223 80.1196C192.243 80.7054 193.037 81.5369 193.604 82.6141C194.171 83.6912 194.454 84.9478 194.454 86.384V87.5462H183.938C183.976 88.6422 184.363 89.5209 185.1 90.1823C185.837 90.8437 186.744 91.1744 187.822 91.1744C188.88 91.1744 189.664 90.9476 190.174 90.4941C190.684 90.0217 191.072 89.4926 191.336 88.9068L194.029 90.2957C193.765 90.8059 193.377 91.3539 192.867 91.9397C192.376 92.5066 191.714 92.998 190.883 93.4137C190.051 93.8105 189.003 94.0089 187.737 94.0089V94.009ZM183.967 85.0801H191.138C191.062 84.1542 190.703 83.4172 190.061 82.8692C189.437 82.3211 188.625 82.0471 187.623 82.0471C186.584 82.0471 185.752 82.3211 185.129 82.8692C184.505 83.4172 184.118 84.1542 183.967 85.0801Z" fill="#230065"/>
<path d="M202.136 94.009C201.153 94.009 200.265 93.8389 199.472 93.4987C198.678 93.1397 198.045 92.6295 197.572 91.9681C197.119 91.3067 196.892 90.4941 196.892 89.5304C196.892 88.5855 197.119 87.7918 197.572 87.1493C198.045 86.5068 198.687 86.025 199.5 85.7037C200.312 85.3636 201.238 85.1935 202.278 85.1935H206.331V84.3431C206.331 83.6061 206.104 83.0109 205.651 82.5574C205.197 82.0849 204.489 81.8487 203.525 81.8487C202.58 81.8487 201.862 82.0755 201.371 82.529C200.898 82.9636 200.586 83.5306 200.435 84.2297L197.431 83.2377C197.657 82.5007 198.017 81.8298 198.508 81.2251C199.018 80.6204 199.689 80.1385 200.52 79.7795C201.352 79.4016 202.372 79.2126 203.582 79.2126C205.415 79.2126 206.851 79.6756 207.89 80.6015C208.948 81.5086 209.478 82.8314 209.478 84.5699V90.0689C209.478 90.6358 209.742 90.9193 210.271 90.9193H211.462V93.6121H209.166C208.485 93.6121 207.928 93.442 207.493 93.1019C207.059 92.7618 206.841 92.2988 206.841 91.713V91.6563H206.36C206.246 91.9208 206.048 92.2421 205.764 92.62C205.481 92.998 205.046 93.3287 204.46 93.6121C203.893 93.8767 203.119 94.009 202.136 94.009V94.009ZM202.675 91.3445C203.752 91.3445 204.63 91.0421 205.311 90.4374C205.991 89.8138 206.331 88.9823 206.331 87.943V87.6596H202.476C201.777 87.6596 201.21 87.8107 200.775 88.1131C200.341 88.4154 200.124 88.8595 200.124 89.4453C200.124 90.0122 200.35 90.4752 200.804 90.8342C201.257 91.1744 201.881 91.3445 202.675 91.3445V91.3445Z" fill="#230065"/>
<path d="M214.155 93.6121V79.6094H217.358V81.5653H217.839C218.085 81.0362 218.529 80.5354 219.172 80.0629C219.814 79.5905 220.787 79.3543 222.091 79.3543C223.168 79.3543 224.123 79.6 224.954 80.0913C225.786 80.5826 226.428 81.2629 226.882 82.1322C227.354 83.0014 227.59 84.0313 227.59 85.2218V93.6121H224.331V85.477C224.331 84.3431 224.047 83.5022 223.48 82.9542C222.932 82.3873 222.148 82.1038 221.128 82.1038C219.975 82.1038 219.068 82.4912 218.406 83.266C217.745 84.0219 217.414 85.1085 217.414 86.5257V93.6121H214.155Z" fill="#230065"/>
<path d="M237.313 94.009C236.179 94.009 235.121 93.735 234.138 93.1869C233.156 92.62 232.371 91.798 231.786 90.7209C231.2 89.6438 230.907 88.3493 230.907 86.8375V86.384C230.907 84.8722 231.2 83.5778 231.786 82.5007C232.371 81.4235 233.146 80.611 234.11 80.0629C235.092 79.496 236.16 79.2126 237.313 79.2126C238.182 79.2126 238.919 79.3165 239.524 79.5244C240.128 79.7322 240.61 79.9968 240.969 80.318C241.347 80.6393 241.64 80.9889 241.848 81.3668H242.33V73.7702H245.561V93.6121H242.387V91.7697H241.905C241.565 92.3366 241.045 92.8562 240.346 93.3287C239.647 93.7822 238.636 94.009 237.313 94.009V94.009ZM238.277 91.1744C239.448 91.1744 240.421 90.7965 241.196 90.0406C241.971 89.2658 242.358 88.1698 242.358 86.7525V86.469C242.358 85.0329 241.971 83.9368 241.196 83.181C240.44 82.4251 239.467 82.0471 238.277 82.0471C237.105 82.0471 236.122 82.4251 235.329 83.181C234.554 83.9368 234.167 85.0329 234.167 86.469V86.7525C234.167 88.1698 234.554 89.2658 235.329 90.0406C236.122 90.7965 237.105 91.1744 238.277 91.1744Z" fill="#230065"/>
<path d="M256.333 94.009C254.934 94.009 253.678 93.7255 252.563 93.1586C251.467 92.5728 250.597 91.7508 249.955 90.6925C249.331 89.6154 249.02 88.3304 249.02 86.8375V86.384C249.02 84.8911 249.331 83.6061 249.955 82.529C250.597 81.4519 251.467 80.6299 252.563 80.0629C253.678 79.496 254.934 79.2126 256.333 79.2126C257.731 79.2126 258.978 79.496 260.074 80.0629C261.17 80.6299 262.03 81.4519 262.654 82.529C263.296 83.6061 263.618 84.8911 263.618 86.384V86.8375C263.618 88.3304 263.296 89.6154 262.654 90.6925C262.03 91.7508 261.17 92.5728 260.074 93.1586C258.978 93.7255 257.731 94.009 256.333 94.009ZM256.333 91.1177C257.523 91.1177 258.496 90.7398 259.252 89.9839C260.008 89.2091 260.386 88.132 260.386 86.7525V86.469C260.386 85.0896 260.008 84.0219 259.252 83.266C258.496 82.4912 257.523 82.1038 256.333 82.1038C255.142 82.1038 254.169 82.4912 253.413 83.266C252.657 84.0219 252.279 85.0896 252.279 86.469V86.7525C252.279 88.132 252.657 89.2091 253.413 89.9839C254.169 90.7398 255.142 91.1177 256.333 91.1177Z" fill="#230065"/>
<path d="M280.937 94.009C279.538 94.009 278.282 93.7255 277.167 93.1586C276.071 92.5728 275.201 91.7508 274.559 90.6925C273.935 89.6154 273.623 88.3304 273.623 86.8375V86.384C273.623 84.8911 273.935 83.6061 274.559 82.529C275.201 81.4519 276.071 80.6299 277.167 80.0629C278.282 79.496 279.538 79.2126 280.937 79.2126C282.335 79.2126 283.582 79.496 284.678 80.0629C285.774 80.6299 286.634 81.4519 287.258 82.529C287.9 83.6061 288.221 84.8911 288.221 86.384V86.8375C288.221 88.3304 287.9 89.6154 287.258 90.6925C286.634 91.7508 285.774 92.5728 284.678 93.1586C283.582 93.7255 282.335 94.009 280.937 94.009ZM280.937 91.1177C282.127 91.1177 283.1 90.7398 283.856 89.9839C284.612 89.2091 284.99 88.132 284.99 86.7525V86.469C284.99 85.0896 284.612 84.0219 283.856 83.266C283.1 82.4912 282.127 82.1038 280.937 82.1038C279.746 82.1038 278.773 82.4912 278.017 83.266C277.261 84.0219 276.883 85.0896 276.883 86.469V86.7525C276.883 88.132 277.261 89.2091 278.017 89.9839C278.773 90.7398 279.746 91.1177 280.937 91.1177Z" fill="#230065"/>
<path d="M307.185 94.009C305.862 94.009 304.841 93.7822 304.123 93.3287C303.424 92.8563 302.914 92.3366 302.593 91.7697H302.111V93.6121H298.908V73.7702H302.167V81.3668H302.649C302.857 80.9889 303.141 80.6393 303.5 80.3181C303.878 79.9968 304.359 79.7323 304.945 79.5244C305.55 79.3165 306.296 79.2126 307.185 79.2126C308.337 79.2126 309.396 79.4961 310.359 80.063C311.323 80.611 312.098 81.4236 312.684 82.5007C313.269 83.5778 313.562 84.8723 313.562 86.384V86.8376C313.562 88.3493 313.269 89.6438 312.684 90.7209C312.098 91.798 311.314 92.6201 310.331 93.187C309.367 93.735 308.318 94.009 307.185 94.009V94.009ZM306.221 91.1744C307.392 91.1744 308.366 90.7965 309.14 90.0406C309.915 89.2658 310.303 88.1698 310.303 86.7525V86.469C310.303 85.0329 309.915 83.9368 309.14 83.181C308.385 82.4251 307.411 82.0471 306.221 82.0471C305.049 82.0471 304.067 82.4251 303.273 83.181C302.498 83.9368 302.111 85.0329 302.111 86.469V86.7525C302.111 88.1698 302.498 89.2658 303.273 90.0406C304.067 90.7965 305.049 91.1744 306.221 91.1744Z" fill="#230065"/>
<path d="M317.02 93.6121V79.6094H320.223V81.2251H320.705C320.913 80.6393 321.263 80.2141 321.754 79.9496C322.245 79.685 322.831 79.5527 323.512 79.5527H325.212V82.444H323.455C322.51 82.444 321.745 82.6991 321.159 83.2093C320.573 83.7006 320.28 84.466 320.28 85.5053V93.6121H317.02Z" fill="#230065"/>
<path d="M332.065 94.009C331.083 94.009 330.195 93.8389 329.401 93.4987C328.607 93.1397 327.974 92.6295 327.502 91.9681C327.048 91.3067 326.822 90.4941 326.822 89.5304C326.822 88.5855 327.048 87.7918 327.502 87.1493C327.974 86.5068 328.617 86.025 329.429 85.7037C330.242 85.3636 331.168 85.1935 332.207 85.1935H336.261V84.3431C336.261 83.6061 336.034 83.0109 335.58 82.5574C335.127 82.0849 334.418 81.8487 333.454 81.8487C332.51 81.8487 331.791 82.0755 331.3 82.529C330.828 82.9636 330.516 83.5306 330.365 84.2297L327.36 83.2377C327.587 82.5007 327.946 81.8298 328.437 81.2251C328.947 80.6204 329.618 80.1385 330.45 79.7795C331.281 79.4016 332.302 79.2126 333.511 79.2126C335.344 79.2126 336.78 79.6756 337.82 80.6015C338.878 81.5086 339.407 82.8314 339.407 84.5699V90.0689C339.407 90.6358 339.672 90.9193 340.201 90.9193H341.391V93.6121H339.095C338.415 93.6121 337.857 93.442 337.423 93.1019C336.988 92.7618 336.771 92.2988 336.771 91.713V91.6563H336.289C336.176 91.9208 335.977 92.2421 335.694 92.62C335.41 92.998 334.976 93.3287 334.39 93.6121C333.823 93.8767 333.048 94.009 332.065 94.009V94.009ZM332.604 91.3445C333.681 91.3445 334.56 91.0421 335.24 90.4374C335.921 89.8138 336.261 88.9823 336.261 87.943V87.6596H332.406C331.706 87.6596 331.14 87.8107 330.705 88.1131C330.27 88.4154 330.053 88.8595 330.053 89.4453C330.053 90.0122 330.28 90.4752 330.733 90.8342C331.187 91.1744 331.81 91.3445 332.604 91.3445V91.3445Z" fill="#230065"/>
<path d="M349.753 94.009C347.939 94.009 346.446 93.6121 345.274 92.8184C344.103 92.0248 343.394 90.8626 343.149 89.3319L346.153 88.5666C346.285 89.2847 346.522 89.8516 346.862 90.2674C347.202 90.6831 347.618 90.976 348.109 91.1461C348.619 91.3161 349.167 91.4012 349.753 91.4012C350.641 91.4012 351.303 91.2405 351.737 90.9193C352.191 90.598 352.418 90.1918 352.418 89.7004C352.418 89.1902 352.2 88.8123 351.766 88.5666C351.35 88.321 350.707 88.1131 349.838 87.943L348.959 87.8013C347.996 87.6123 347.117 87.3572 346.323 87.036C345.53 86.6958 344.887 86.2423 344.396 85.6754C343.923 85.0896 343.687 84.3526 343.687 83.4644C343.687 82.1038 344.188 81.055 345.189 80.3181C346.21 79.5811 347.542 79.2126 349.186 79.2126C350.755 79.2126 352.049 79.5622 353.07 80.2614C354.09 80.9606 354.751 81.896 355.054 83.0676L352.049 83.9746C351.898 83.181 351.567 82.6235 351.057 82.3023C350.547 81.9621 349.923 81.792 349.186 81.792C348.43 81.792 347.845 81.9243 347.429 82.1889C347.032 82.4534 346.833 82.8314 346.833 83.3227C346.833 83.814 347.041 84.1825 347.457 84.4282C347.873 84.6738 348.43 84.8534 349.129 84.9667L350.008 85.1368C351.048 85.3258 351.983 85.5714 352.814 85.8738C353.665 86.1761 354.336 86.6108 354.827 87.1777C355.318 87.7446 355.564 88.5099 355.564 89.4737C355.564 90.9288 355.035 92.0531 353.977 92.8468C352.937 93.6216 351.529 94.009 349.753 94.009V94.009Z" fill="#230065"/>
<path d="M358.852 93.6121V79.6094H362.112V93.6121H358.852ZM360.468 77.8236C359.882 77.8236 359.372 77.6347 358.937 77.2567C358.521 76.8599 358.313 76.3402 358.313 75.6977C358.313 75.0552 358.521 74.545 358.937 74.1671C359.372 73.7702 359.882 73.5718 360.468 73.5718C361.091 73.5718 361.601 73.7702 361.998 74.1671C362.414 74.545 362.622 75.0552 362.622 75.6977C362.622 76.3402 362.414 76.8599 361.998 77.2567C361.601 77.6347 361.091 77.8236 360.468 77.8236Z" fill="#230065"/>
<path d="M366.25 93.6121V73.7702H369.51V93.6121H366.25Z" fill="#230065"/>
</svg>
