<svg width="371" height="77" viewBox="0 0 371 77" fill="none" xmlns="http://www.w3.org/2000/svg">
<path d="M71.6187 0.925342C71.2899 0.923338 70.9591 0.923807 70.6285 0.92736V0.929321C65.0478 0.880943 59.8401 2.19455 55.1226 4.21051C50.4057 2.19497 45.1969 0.880792 39.6168 0.929321C29.0392 0.815557 19.3349 3.54027 12.1988 9.78476C5.05212 16.0385 0.860455 25.6996 0.773072 37.9742C0.770275 38.3341 0.784376 38.5025 0.784376 38.486C0.783695 38.5264 0.773072 38.6764 0.773072 38.9645C0.773034 38.9758 0.773034 38.9833 0.773072 38.9947C0.859245 51.2721 5.05103 60.9333 12.1988 67.1881C19.3348 73.4326 29.0392 76.1575 39.6168 76.0435C45.1977 76.0919 50.407 74.7776 55.1246 72.7623C59.8415 74.7771 65.0485 76.092 70.6285 76.0435C81.2062 76.1573 90.9104 73.4306 98.0465 67.1861C105.194 60.9313 109.388 51.2701 109.474 38.9927V38.9908V38.9888V38.9869V38.9849V38.983V38.981V38.979V38.9771V38.9752V38.9732V38.9713V38.9693V38.9673V38.9654C109.474 38.6774 109.463 38.5252 109.463 38.4849V38.4736V38.466C109.464 38.4736 109.478 38.3171 109.474 37.9758C109.388 25.6984 105.194 16.0371 98.0465 9.7824C91.1334 3.73304 81.8113 0.985359 71.6187 0.923035V0.925342ZM39.568 9.42732C39.5982 9.42766 39.6303 9.42766 39.6617 9.42732C41.4337 9.40842 43.2003 9.60837 44.9469 9.96833C39.7154 13.6493 35.5647 17.671 32.8082 20.4039C25.3435 27.8047 21.5431 31.4151 17.4781 35.4801C15.8194 37.1407 15.8194 39.8311 17.4781 41.4918C21.5426 45.5562 25.3432 49.1727 32.8082 56.5738C35.5641 59.3061 39.7135 63.3246 44.943 67.0035C43.1976 67.363 41.4325 67.5604 39.6617 67.5426C39.6314 67.5422 39.5993 67.5422 39.568 67.5426C30.4839 67.6484 22.989 65.3234 17.8023 60.7847C12.6157 56.2461 9.3561 49.3777 9.28278 38.9312C9.28368 38.8931 9.28658 38.7672 9.28658 38.5015V38.4996V38.4977V38.4957V38.4937V38.4918V38.4898V38.4879V38.486C9.28658 38.1507 9.28278 38.0118 9.28278 38.0504V38.0484V38.0465V38.0445V38.0426V38.0406V38.0387C9.3561 27.5922 12.6157 20.7257 17.8023 16.1871C22.989 11.6485 30.4839 9.32157 39.568 9.42732V9.42732ZM70.5855 9.42732C70.6157 9.42766 70.6479 9.42766 70.6793 9.42732C79.7634 9.32149 87.2563 11.6485 92.4429 16.1871C97.6295 20.7257 100.891 27.5942 100.964 38.0406C100.964 38.0444 100.964 38.0482 100.964 38.052C100.964 38.0127 100.961 38.1514 100.961 38.4875C100.961 38.4951 100.961 38.4989 100.961 38.5064C100.962 38.7718 100.964 38.898 100.964 38.9361C100.891 49.3826 97.6295 56.249 92.4429 60.7877C87.2563 65.3263 79.7633 67.6533 70.6793 67.5474C70.649 67.5471 70.6169 67.5471 70.5855 67.5474C68.8147 67.5663 67.0497 67.3657 65.3043 67.0065C70.5335 63.3276 74.6833 59.3089 77.4391 56.5767C84.9041 49.1756 88.7027 45.5592 92.7672 41.4947C94.4247 39.8343 94.4247 37.1454 92.7672 35.4849C88.7022 31.4199 84.9038 27.8077 77.4391 20.4068C74.6826 17.6739 70.5318 13.6522 65.3004 9.97127C67.047 9.61108 68.8135 9.41442 70.5855 9.43222V9.42732ZM55.1246 13.8511C61.9977 17.5935 67.8738 22.8986 71.4488 26.443C77.4566 32.3994 80.443 35.2819 83.6968 38.486C80.4427 41.6908 77.4566 44.5783 71.4488 50.5348C67.8734 54.0796 61.9954 59.3817 55.1207 63.1226C48.2477 59.3818 42.3712 54.0789 38.7965 50.5348C32.7887 44.5783 29.8046 41.6908 26.5503 38.486C29.8042 35.2819 32.7887 32.3994 38.7965 26.443C42.3721 22.898 48.2501 17.5936 55.1246 13.8511ZM192.845 16.4801C184.096 16.4801 173.437 20.8183 173.437 32.3609V63.8278C173.437 65.5187 174.245 65.9605 175.568 65.9605H182.847C184.171 65.9605 184.98 65.5187 184.98 63.8278V51.0817H200.787V63.8278C200.787 65.5187 201.594 65.9605 202.918 65.9605H210.197C211.52 65.9605 212.33 65.5187 212.33 63.8278V32.3609C212.33 20.8183 201.594 16.4801 192.845 16.4801V16.4801ZM351.062 16.4801C342.313 16.4801 331.654 20.8183 331.654 32.3609V63.8278C331.654 65.5187 332.461 65.9605 333.785 65.9605H341.064C342.387 65.9605 343.195 65.5187 343.195 63.8278V50.8687H359.002V63.8278C359.002 65.5187 359.811 65.9605 361.134 65.9605H368.414C369.737 65.9605 370.545 65.5187 370.545 63.8278V32.3609C370.545 20.8183 359.811 16.4801 351.062 16.4801V16.4801ZM125.027 17.5094C123.336 17.5094 122.896 18.3189 122.896 19.6422V63.8278C122.896 65.5187 123.704 65.9586 125.027 65.9586H132.306C133.63 65.9586 134.439 65.5187 134.439 63.8278V38.9039L141.865 51.7691C142.233 52.3573 142.821 53.3141 143.923 53.314H147.599C148.702 53.314 149.362 52.3573 149.73 51.7691L157.084 38.9039V63.8278C157.084 65.5187 157.891 65.9586 159.214 65.9586H166.273C167.596 65.9586 168.404 65.5187 168.404 63.8278V19.6422C168.404 18.3189 167.964 17.5094 166.273 17.5094H159.214C156.788 17.5094 156.421 19.1271 155.906 20.0094L145.761 38.0953L135.689 20.0094C135.101 19.1271 134.806 17.5094 132.306 17.5094H125.027ZM219.39 17.5834C217.699 17.5834 217.257 18.391 217.257 19.7143V63.8276C217.257 65.5185 218.067 65.9585 219.39 65.9585H226.668C227.991 65.9585 228.8 65.5185 228.8 63.8276V51.6225H235.857C248.429 51.6225 255.193 44.8594 255.193 34.64C255.193 24.4942 248.577 17.5834 235.931 17.5834H219.39ZM261.816 17.5834C260.125 17.5834 259.683 18.3909 259.683 19.7143V63.8276C259.683 65.1509 260.125 65.9585 261.816 65.9585H294.752C296.443 65.9585 296.884 65.1509 296.884 63.8276V57.7982C296.884 56.4749 296.443 55.6654 294.752 55.6655H271.298V45.9623H291.004C292.695 45.9623 293.134 45.1529 293.134 43.8295V38.0952C293.134 36.7718 292.695 35.9623 291.004 35.9623H271.298V27.9487H293.502C295.193 27.9487 295.634 27.1412 295.634 25.8178V19.7144C295.634 18.3911 295.193 17.5836 293.502 17.5836L261.816 17.5834ZM303.824 17.5834C302.133 17.5834 301.693 18.391 301.693 19.7143V25.6694C301.693 26.9927 302.133 27.8022 303.824 27.8022H308.308V55.8862H303.677C301.986 55.8862 301.545 56.6956 301.545 58.019V63.8276C301.545 65.1509 301.986 65.9585 303.677 65.9585H324.484C326.175 65.9585 326.615 65.1509 326.615 63.8276V58.019C326.615 56.6956 326.175 55.8862 324.484 55.8862H319.851V27.8022H324.263C325.954 27.8022 326.394 26.9928 326.394 25.6694V19.7144C326.394 18.3911 325.954 17.5836 324.263 17.5836L303.824 17.5834ZM55.1226 25.9897C48.2211 25.9895 42.6263 31.5843 42.6265 38.4858C42.6263 45.3873 48.2211 50.9821 55.1226 50.9819C62.0241 50.9821 67.619 45.3873 67.6187 38.4858C67.619 31.5843 62.0241 25.9895 55.1226 25.9897ZM192.845 26.6987C197.698 26.6987 200.787 29.3462 200.787 33.978V41.0835H184.98V33.978C184.98 29.3462 187.993 26.6987 192.845 26.6987V26.6987ZM351.062 26.6987C355.915 26.6987 359.002 29.3462 359.002 33.978V40.8686H343.195V33.978C343.195 29.3462 346.21 26.6987 351.062 26.6987V26.6987ZM228.8 27.9487H235.857C241.592 27.9487 244.091 31.0377 244.091 34.8608C244.091 38.5368 241.592 41.6967 235.857 41.6967H228.8V27.9487Z" fill="#F9F9F9"/>
</svg>
