<svg width="371" height="76" viewBox="0 0 371 76" fill="none" xmlns="http://www.w3.org/2000/svg">
<path d="M71.6188 0.362288C71.29 0.360278 70.9591 0.360689 70.6285 0.364249V0.36621C65.0478 0.317719 59.8401 1.63146 55.1226 3.64745C50.4057 1.63191 45.1969 0.317688 39.6168 0.36621C29.0392 0.252371 19.3349 2.9772 12.1988 9.22168C5.05212 15.4754 0.860455 25.1365 0.773072 37.4111C0.770275 37.771 0.784376 37.9394 0.784376 37.9228C0.783695 37.9631 0.773072 38.1133 0.773072 38.4014C0.773034 38.4112 0.773034 38.421 0.773072 38.4309C0.859245 50.7082 5.05103 60.3694 12.1988 66.6242C19.3348 72.8687 29.0392 75.5936 39.6168 75.4797C45.1977 75.5282 50.4071 74.2137 55.1246 72.1984C59.8416 74.2132 65.0485 75.5282 70.6285 75.4797C81.2062 75.5935 90.9104 72.8668 98.0465 66.6223C105.194 60.3675 109.388 50.7063 109.474 38.4289V38.4269V38.425V38.423V38.4211V38.4191V38.4172V38.4152V38.4133V38.4113V38.4094V38.4074V38.4054V38.4035V38.4016C109.474 38.1136 109.463 37.9614 109.463 37.9211V37.9113V37.9056C109.464 37.9113 109.478 37.7567 109.474 37.4154C109.388 25.138 105.194 15.4767 98.0465 9.222C91.1335 3.17266 81.8114 0.424929 71.6188 0.36262V0.362288ZM39.568 8.86425C39.5982 8.86459 39.6303 8.86459 39.6617 8.86425C41.4337 8.84649 43.2003 9.04517 44.9468 9.40526C39.7154 13.0862 35.5647 17.1079 32.8082 19.8408C25.3435 27.2417 21.5431 30.852 17.4781 34.917C15.8194 36.5776 15.8194 39.2681 17.4781 40.9287C21.5426 44.9932 25.3432 48.6096 32.8082 56.0107C35.5641 58.743 39.7135 62.7615 44.943 66.4404C43.1976 66.7998 41.4325 66.9973 39.6617 66.9795C39.6314 66.9791 39.5993 66.9791 39.568 66.9795C30.4839 67.0855 22.989 64.7603 17.8023 60.2217C12.6157 55.683 9.35614 48.8146 9.28278 38.3682C9.28372 38.3301 9.28658 38.2041 9.28658 37.9385V37.9365V37.9346V37.9326V37.9306V37.9287V37.9267V37.9248V37.9228C9.28658 37.5875 9.28278 37.4487 9.28278 37.4873V37.4853V37.4834V37.4814V37.4795V37.4775V37.4756C9.3561 27.0291 12.6157 20.1626 17.8023 15.624C22.989 11.0854 30.4839 8.75851 39.568 8.86425V8.86425ZM70.5856 8.86425C70.6158 8.86459 70.6479 8.86459 70.6793 8.86425C79.7634 8.75857 87.2564 11.0854 92.443 15.624C97.6296 20.1626 100.891 27.0311 100.964 37.4775C100.964 37.4808 100.964 37.484 100.964 37.4874C100.964 37.4479 100.961 37.587 100.961 37.9229C100.961 37.929 100.961 37.9346 100.961 37.9407C100.962 38.2061 100.964 38.3322 100.964 38.3704C100.891 48.8168 97.6296 55.6833 92.443 60.2219C87.2564 64.7606 79.7633 67.0876 70.6793 66.9817C70.649 66.9813 70.6169 66.9813 70.5856 66.9817C68.8147 66.9994 67.0497 66.8001 65.3043 66.4407C70.5335 62.7618 74.6833 58.7432 77.4391 56.011C84.9041 48.6098 88.7028 44.9934 92.7672 40.929C94.4247 39.2685 94.4247 36.5796 92.7672 34.9192C88.7023 30.8542 84.9038 27.2419 77.4391 19.8411C74.6826 17.1082 70.5318 13.0864 65.3004 9.40551C67.047 9.04543 68.8135 8.84867 70.5856 8.86646V8.86425ZM55.1246 13.2881C61.9977 17.0304 67.8738 22.3355 71.4488 25.8799C77.4566 31.8362 80.443 34.7188 83.6969 37.9228C80.4428 41.1276 77.4566 44.0153 71.4488 49.9717C67.8734 53.5165 61.9954 58.8186 55.1207 62.5596C48.2477 58.8187 42.3713 53.5158 38.7965 49.9717C32.7887 44.0153 29.8046 41.1276 26.5504 37.9228C29.8042 34.7188 32.7887 31.8362 38.7965 25.8799C42.3721 22.3349 48.2501 17.0306 55.1246 13.2881V13.2881ZM192.845 15.917C184.096 15.917 173.437 20.2552 173.437 31.7978V63.2647C173.437 64.9556 174.245 65.3974 175.568 65.3974H182.847C184.171 65.3974 184.98 64.9556 184.98 63.2647V50.5186H200.787V63.2647C200.787 64.9556 201.594 65.3974 202.918 65.3974H210.197C211.52 65.3974 212.33 64.9556 212.33 63.2647V31.7978C212.33 20.2552 201.594 15.917 192.845 15.917V15.917ZM351.062 15.917C342.313 15.917 331.654 20.2552 331.654 31.7978V63.2647C331.654 64.9556 332.461 65.3974 333.785 65.3974H341.064C342.387 65.3974 343.195 64.9556 343.195 63.2647V50.3057H359.002V63.2647C359.002 64.9556 359.811 65.3974 361.134 65.3974H368.414C369.737 65.3974 370.545 64.9556 370.545 63.2647V31.7978C370.545 20.2552 359.811 15.917 351.062 15.917V15.917ZM125.027 16.9463C123.336 16.9463 122.896 17.7558 122.896 19.0791V63.2647C122.896 64.9556 123.704 65.3955 125.027 65.3955H132.306C133.63 65.3955 134.439 64.9556 134.439 63.2647V38.3408L141.865 51.206C142.233 51.7942 142.821 52.751 143.923 52.751H147.599C148.702 52.751 149.362 51.7942 149.73 51.206L157.084 38.3408V63.2647C157.084 64.9556 157.891 65.3955 159.214 65.3955H166.273C167.596 65.3955 168.404 64.9556 168.404 63.2647V19.0791C168.404 17.7558 167.964 16.9463 166.273 16.9463H159.214C156.788 16.9463 156.421 18.564 155.906 19.4463L145.761 37.5322L135.689 19.4463C135.101 18.564 134.806 16.9463 132.306 16.9463H125.027ZM219.39 17.0205C217.699 17.0205 217.257 17.828 217.257 19.1514V63.2647C217.257 64.9556 218.067 65.3955 219.39 65.3955H226.668C227.991 65.3955 228.8 64.9556 228.8 63.2647V51.0596H235.857C248.429 51.0596 255.193 44.2965 255.193 34.0772C255.193 23.9313 248.577 17.0205 235.931 17.0205H219.39ZM261.816 17.0205C260.125 17.0205 259.683 17.828 259.683 19.1514V63.2647C259.683 64.588 260.125 65.3955 261.816 65.3955H294.752C296.443 65.3955 296.884 64.588 296.884 63.2647V57.2353C296.884 55.912 296.443 55.1025 294.752 55.1025H271.298V45.3994H291.004C292.695 45.3994 293.134 44.59 293.134 43.2666V37.5322C293.134 36.2088 292.695 35.3994 291.004 35.3994H271.298V27.3857H293.502C295.193 27.3857 295.634 26.5782 295.634 25.2549V19.1514C295.634 17.828 295.193 17.0205 293.502 17.0205L261.816 17.0205ZM303.824 17.0205C302.133 17.0205 301.693 17.828 301.693 19.1514V25.1064C301.693 26.4298 302.133 27.2393 303.824 27.2393H308.308V55.3232H303.677C301.986 55.3232 301.545 56.1327 301.545 57.4561V63.2647C301.545 64.588 301.986 65.3955 303.677 65.3955H324.484C326.175 65.3955 326.615 64.588 326.615 63.2647V57.4561C326.615 56.1327 326.175 55.3232 324.484 55.3232H319.851V27.2393H324.263C325.954 27.2393 326.394 26.4299 326.394 25.1064V19.1514C326.394 17.828 325.954 17.0205 324.263 17.0205H303.824ZM55.1226 25.4268C48.2211 25.4266 42.6264 31.0214 42.6266 37.9229C42.6264 44.8243 48.2211 50.4191 55.1226 50.419C62.0241 50.4192 67.619 44.8243 67.6187 37.9229C67.619 31.0214 62.0241 25.4265 55.1226 25.4268V25.4268ZM192.845 26.1357C197.698 26.1357 200.787 28.7832 200.787 33.415V40.5205H184.98V33.415C184.98 28.7832 187.993 26.1357 192.845 26.1357ZM351.062 26.1357C355.915 26.1357 359.002 28.7832 359.002 33.415V40.3056H343.195V33.415C343.195 28.7832 346.21 26.1357 351.062 26.1357ZM228.8 27.3857H235.857C241.592 27.3857 244.091 30.4748 244.091 34.2979C244.091 37.9738 241.592 41.1338 235.857 41.1338H228.8V27.3857Z" fill="#00E77D"/>
</svg>
